<?xml version="1.0" encoding="UTF-8" ?>
<!DOCTYPE svg PUBLIC "-//W3C//DTD SVG 1.1//EN" "http://www.w3.org/Graphics/SVG/1.1/DTD/svg11.dtd">
<svg width="112pt" height="125pt" viewBox="0 0 112 125" version="1.1" xmlns="http://www.w3.org/2000/svg">
<g id="#444444ff">
<path fill="#444444" opacity="1.00" d=" M 83.75 0.00 L 89.71 0.00 C 91.39 0.70 93.05 1.46 94.71 2.22 C 99.82 23.53 105.34 44.74 110.56 66.02 C 109.09 68.30 107.94 71.06 105.34 72.28 C 102.48 74.05 98.89 75.07 97.05 78.11 C 95.70 80.18 94.05 82.32 94.06 84.92 C 93.22 98.27 92.84 111.65 92.04 125.00 L 0.77 125.00 C 0.83 103.98 2.05 82.99 2.06 61.97 C 3.02 44.83 2.65 27.66 3.48 10.52 C 5.82 8.37 8.15 6.22 10.45 4.03 C 26.01 3.59 41.53 2.27 57.08 1.73 C 65.95 0.86 74.90 1.13 83.75 0.00 Z" />
</g>
</svg>
