<?xml version="1.0" encoding="UTF-8" ?>
<!DOCTYPE svg PUBLIC "-//W3C//DTD SVG 1.1//EN" "http://www.w3.org/Graphics/SVG/1.1/DTD/svg11.dtd">
<svg width="120pt" height="160pt" viewBox="0 0 120 160" version="1.1" xmlns="http://www.w3.org/2000/svg">
<g id="#444444ff">
<path fill="#444444" opacity="1.00" d=" M 10.04 4.96 C 37.08 3.54 64.12 2.29 91.16 0.91 C 93.07 3.19 95.75 5.09 96.55 8.09 C 103.32 34.14 110.01 60.21 116.82 86.24 C 117.95 90.09 116.99 94.10 116.94 98.02 C 110.23 105.46 101.25 110.26 93.54 116.54 C 92.98 124.32 93.18 132.14 92.45 139.91 C 91.86 146.60 92.41 153.35 91.37 160.00 L 2.48 160.00 C 1.48 155.72 2.13 151.28 2.04 146.94 C 2.67 130.29 2.98 113.64 3.03 96.98 C 3.64 80.67 3.99 64.34 4.01 48.02 C 4.41 35.29 4.87 22.57 4.92 9.84 C 6.60 8.19 8.30 6.56 10.04 4.96 Z" />
</g>
</svg>
