<?xml version="1.0" encoding="UTF-8" ?>
<!DOCTYPE svg PUBLIC "-//W3C//DTD SVG 1.1//EN" "http://www.w3.org/Graphics/SVG/1.1/DTD/svg11.dtd">
<svg width="70pt" height="33pt" viewBox="0 0 70 33" version="1.1" xmlns="http://www.w3.org/2000/svg">
<g id="#020202fd">
<path fill="#020202" opacity="1.00" d=" M 35.85 5.49 C 46.50 4.06 57.00 0.46 67.80 0.82 C 68.76 4.76 69.88 8.95 68.59 12.96 C 67.76 16.28 67.44 20.30 64.36 22.42 C 58.25 26.59 50.39 27.64 43.30 25.65 C 39.29 20.19 37.91 13.34 36.23 6.91 C 36.13 6.55 35.94 5.84 35.85 5.49 M 41.85 7.88 C 39.01 8.62 40.80 11.88 41.32 13.71 C 42.85 17.25 43.14 22.95 47.96 23.48 C 52.89 23.44 59.05 23.83 62.20 19.21 C 65.33 14.68 67.61 8.41 64.34 3.32 C 56.83 4.77 49.23 5.82 41.85 7.88 Z" />
<path fill="#020202" opacity="1.00" d=" M 1.44 11.56 C 11.43 8.52 21.98 7.94 32.30 6.61 C 32.37 7.18 32.50 8.31 32.57 8.87 C 33.75 14.46 33.59 20.26 32.68 25.88 C 32.05 28.36 29.43 29.39 27.32 30.31 C 22.17 32.61 16.18 32.92 10.80 31.24 C 6.45 29.72 4.98 24.89 2.67 21.37 C 1.61 18.35 0.52 14.60 1.44 11.56 M 5.34 13.39 C 3.09 18.03 7.05 22.73 10.03 26.06 C 13.57 30.04 19.37 29.11 24.02 28.20 C 26.67 27.66 29.87 26.04 29.84 22.91 C 30.05 18.75 30.21 14.54 29.48 10.41 C 21.41 11.01 13.21 11.57 5.34 13.39 Z" />
</g>
<g id="#33333333">
<path fill="#333333" opacity="0.20" d=" M 41.85 7.88 C 49.23 5.82 56.83 4.77 64.34 3.32 C 67.61 8.41 65.33 14.68 62.20 19.21 C 59.05 23.83 52.89 23.44 47.96 23.48 C 43.14 22.95 42.85 17.25 41.32 13.71 C 40.80 11.88 39.01 8.62 41.85 7.88 Z" />
<path fill="#333333" opacity="0.20" d=" M 5.34 13.39 C 13.21 11.57 21.41 11.01 29.48 10.41 C 30.21 14.54 30.05 18.75 29.84 22.91 C 29.87 26.04 26.67 27.66 24.02 28.20 C 19.37 29.11 13.57 30.04 10.03 26.06 C 7.05 22.73 3.09 18.03 5.34 13.39 Z" />
</g>
<g id="#fdfdfdfe">
<path fill="#fdfdfd" opacity="1.00" d=" M 32.30 6.61 C 33.26 5.69 34.44 5.32 35.85 5.49 C 35.94 5.84 36.13 6.55 36.23 6.91 C 36.27 8.24 36.28 9.57 36.24 10.91 C 35.33 10.40 33.49 9.38 32.57 8.87 C 32.50 8.31 32.37 7.18 32.30 6.61 Z" />
</g>
</svg>
