<?xml version="1.0" encoding="UTF-8" ?>
<!DOCTYPE svg PUBLIC "-//W3C//DTD SVG 1.1//EN" "http://www.w3.org/Graphics/SVG/1.1/DTD/svg11.dtd">
<svg width="86pt" height="80pt" viewBox="0 0 86 80" version="1.1" xmlns="http://www.w3.org/2000/svg">
<g id="#000000ff">
<path fill="#000000" opacity="1.00" d=" M 83.60 0.00 L 84.37 0.00 C 84.78 0.46 85.59 1.39 85.99 1.85 C 77.22 10.09 68.43 18.29 59.62 26.48 C 61.80 30.54 62.39 38.13 56.94 39.80 C 53.05 40.42 49.01 39.63 45.14 40.09 C 30.95 53.19 16.91 66.47 2.75 79.60 C 2.08 78.86 1.42 78.12 0.75 77.39 C 14.81 64.22 28.94 51.11 42.98 37.91 C 41.62 34.58 41.31 30.39 43.09 27.17 C 46.54 23.30 52.34 25.66 56.84 24.98 C 65.78 16.67 74.68 8.33 83.60 0.00 Z" />
</g>
</svg>
