<?xml version="1.0" encoding="UTF-8" ?>
<!DOCTYPE svg PUBLIC "-//W3C//DTD SVG 1.1//EN" "http://www.w3.org/Graphics/SVG/1.1/DTD/svg11.dtd">
<svg width="33pt" height="31pt" viewBox="0 0 33 31" version="1.1" xmlns="http://www.w3.org/2000/svg">
<g id="#282626d6">
<path fill="#282626" opacity="0.84" d=" M 14.66 0.00 L 18.83 0.00 C 25.65 1.28 31.34 6.37 33.00 13.15 L 33.00 18.09 C 32.14 20.24 31.23 22.39 29.88 24.28 C 29.53 24.48 28.84 24.87 28.49 25.07 C 29.96 22.16 31.67 19.21 31.94 15.88 C 31.98 13.47 31.06 11.18 30.18 8.98 C 29.97 8.69 29.54 8.12 29.33 7.83 C 27.94 5.97 26.18 4.42 24.25 3.15 C 24.04 3.01 23.63 2.73 23.42 2.60 C 15.50 -1.11 4.81 2.70 1.95 11.18 C -0.71 17.82 3.47 25.49 9.80 28.21 L 10.11 28.68 C 9.52 28.78 8.33 28.97 7.73 29.07 C 4.42 26.15 1.46 22.78 0.17 18.45 L 0.00 19.44 L 0.00 13.62 C 1.35 6.39 7.51 1.07 14.66 0.00 Z" />
</g>
<g id="#ffffffff">
<path fill="#ffffff" opacity="1.00" d=" M 1.95 11.18 C 4.81 2.70 15.50 -1.11 23.42 2.60 C 22.08 4.84 20.45 6.96 19.63 9.47 C 22.00 8.07 23.55 5.78 24.25 3.15 C 26.18 4.42 27.94 5.97 29.33 7.83 C 27.47 7.95 25.69 8.53 23.93 9.11 C 23.96 9.69 24.00 10.83 24.02 11.41 C 24.86 10.62 25.69 9.82 26.52 9.03 C 27.74 9.02 28.96 9.00 30.18 8.98 C 31.06 11.18 31.98 13.47 31.94 15.88 C 31.67 19.21 29.96 22.16 28.49 25.07 C 28.11 25.29 27.36 25.73 26.98 25.95 C 26.99 25.36 27.02 24.18 27.03 23.59 C 26.29 22.44 25.24 21.50 23.96 21.01 C 24.09 23.00 25.61 24.46 26.60 26.08 C 25.45 26.90 24.25 27.65 22.98 28.26 C 23.03 26.50 22.38 24.05 20.28 23.88 C 20.48 25.61 21.38 27.17 22.54 28.44 C 19.07 30.17 15.21 30.09 11.53 29.17 L 10.83 28.80 C 11.28 27.65 12.41 26.43 11.83 25.13 C 10.30 25.07 9.94 27.03 9.80 28.21 C 3.47 25.49 -0.71 17.82 1.95 11.18 M 15.24 2.45 C 15.28 4.22 15.91 6.08 16.31 7.82 C 18.07 7.16 17.01 2.77 15.24 2.45 M 11.84 8.42 C 10.30 7.81 9.20 6.68 8.56 5.16 C 6.04 6.60 10.43 10.95 11.84 8.42 M 3.20 10.57 C 4.33 12.35 7.15 12.43 8.90 11.68 C 7.75 10.96 4.52 9.97 3.20 10.57 M 15.52 13.50 C 15.45 14.44 15.31 16.32 15.24 17.26 C 15.97 17.57 17.44 18.20 18.17 18.51 C 18.96 17.74 19.74 16.96 20.51 16.17 C 20.20 15.44 19.58 13.98 19.27 13.25 C 18.33 13.32 16.46 13.44 15.52 13.50 M 23.71 16.21 C 26.17 14.63 28.60 16.30 31.22 16.09 L 31.19 15.03 C 30.51 15.00 29.15 14.94 28.48 14.92 C 27.05 12.99 24.24 14.15 23.71 16.21 M 2.35 18.30 L 2.29 18.68 C 3.84 19.12 8.17 19.93 7.96 17.42 C 6.17 17.76 4.22 18.06 2.35 18.30 M 25.17 19.24 C 25.67 20.19 28.85 21.23 29.81 20.41 C 28.91 18.92 26.68 18.62 25.17 19.24 M 6.27 24.46 C 7.70 25.45 11.45 23.38 10.89 21.27 C 9.31 21.85 7.49 23.18 6.27 24.46 M 16.34 23.18 C 16.10 24.84 13.93 27.66 15.58 28.84 C 16.69 27.51 18.08 24.19 16.34 23.18 Z" />
</g>
<g id="#ba2f2fff">
<path fill="#ba2f2f" opacity="1.00" d=" M 15.24 2.45 C 17.01 2.77 18.07 7.16 16.31 7.82 C 15.91 6.08 15.28 4.22 15.24 2.45 Z" />
</g>
<g id="#ac0505ff">
<path fill="#ac0505" opacity="1.00" d=" M 23.42 2.60 C 23.63 2.73 24.04 3.01 24.25 3.15 C 23.55 5.78 22.00 8.07 19.63 9.47 C 20.45 6.96 22.08 4.84 23.42 2.60 Z" />
<path fill="#ac0505" opacity="1.00" d=" M 11.84 8.42 C 10.43 10.95 6.04 6.60 8.56 5.16 C 9.20 6.68 10.30 7.81 11.84 8.42 Z" />
<path fill="#ac0505" opacity="1.00" d=" M 3.20 10.57 C 4.52 9.97 7.75 10.96 8.90 11.68 C 7.15 12.43 4.33 12.35 3.20 10.57 Z" />
<path fill="#ac0505" opacity="1.00" d=" M 23.71 16.21 C 24.24 14.15 27.05 12.99 28.48 14.92 C 29.15 14.94 30.51 15.00 31.19 15.03 L 31.22 16.09 C 28.60 16.30 26.17 14.63 23.71 16.21 Z" />
<path fill="#ac0505" opacity="1.00" d=" M 2.35 18.30 C 4.22 18.06 6.17 17.76 7.96 17.42 C 8.17 19.93 3.84 19.12 2.29 18.68 L 2.35 18.30 Z" />
<path fill="#ac0505" opacity="1.00" d=" M 25.17 19.24 C 26.68 18.62 28.91 18.92 29.81 20.41 C 28.85 21.23 25.67 20.19 25.17 19.24 Z" />
<path fill="#ac0505" opacity="1.00" d=" M 6.27 24.46 C 7.49 23.18 9.31 21.85 10.89 21.27 C 11.45 23.38 7.70 25.45 6.27 24.46 Z" />
<path fill="#ac0505" opacity="1.00" d=" M 23.96 21.01 C 25.24 21.50 26.29 22.44 27.03 23.59 C 27.02 24.18 26.99 25.36 26.98 25.95 L 26.60 26.08 C 25.61 24.46 24.09 23.00 23.96 21.01 Z" />
<path fill="#ac0505" opacity="1.00" d=" M 16.34 23.18 C 18.08 24.19 16.69 27.51 15.58 28.84 C 13.93 27.66 16.10 24.84 16.34 23.18 Z" />
<path fill="#ac0505" opacity="1.00" d=" M 20.28 23.88 C 22.38 24.05 23.03 26.50 22.98 28.26 L 22.54 28.44 C 21.38 27.17 20.48 25.61 20.28 23.88 Z" />
</g>
<g id="#b62424ff">
<path fill="#b62424" opacity="1.00" d=" M 23.93 9.11 C 25.69 8.53 27.47 7.95 29.33 7.83 C 29.54 8.12 29.97 8.69 30.18 8.98 C 28.96 9.00 27.74 9.02 26.52 9.03 C 25.69 9.82 24.86 10.62 24.02 11.41 C 24.00 10.83 23.96 9.69 23.93 9.11 Z" />
</g>
<g id="#0c0c0cff">
<path fill="#0c0c0c" opacity="1.00" d=" M 15.52 13.50 C 16.46 13.44 18.33 13.32 19.27 13.25 C 19.58 13.98 20.20 15.44 20.51 16.17 C 19.74 16.96 18.96 17.74 18.17 18.51 C 17.44 18.20 15.97 17.57 15.24 17.26 C 15.31 16.32 15.45 14.44 15.52 13.50 Z" />
</g>
<g id="#ae2828ff">
<path fill="#ae2828" opacity="1.00" d=" M 9.80 28.21 C 9.94 27.03 10.30 25.07 11.83 25.13 C 12.41 26.43 11.28 27.65 10.83 28.80 L 10.11 28.68 L 9.80 28.21 Z" />
</g>
<g id="#312929d7">
<path fill="#312929" opacity="0.84" d=" M 26.60 26.08 L 26.98 25.95 C 26.94 26.50 26.86 27.61 26.82 28.16 C 24.34 28.92 21.96 29.95 19.59 31.00 L 12.16 31.00 C 12.00 30.54 11.69 29.63 11.53 29.17 C 15.21 30.09 19.07 30.17 22.54 28.44 L 22.98 28.26 C 24.25 27.65 25.45 26.90 26.60 26.08 Z" />
</g>
</svg>
