<?xml version="1.0" encoding="UTF-8" ?>
<!DOCTYPE svg PUBLIC "-//W3C//DTD SVG 1.1//EN" "http://www.w3.org/Graphics/SVG/1.1/DTD/svg11.dtd">
<svg width="24pt" height="33pt" viewBox="0 0 24 33" version="1.1" xmlns="http://www.w3.org/2000/svg">
<g id="#000000fd">
<path fill="#000000" opacity="1.00" d=" M 10.60 0.00 L 13.19 0.00 C 19.84 1.68 23.08 8.37 24.00 14.62 L 24.00 18.38 C 23.09 24.59 19.89 31.14 13.40 33.00 L 10.81 33.00 C 4.16 31.32 0.92 24.63 0.00 18.38 L 0.00 14.62 C 0.91 8.41 4.11 1.86 10.60 0.00 M 10.34 2.20 C -1.19 6.49 -0.96 27.65 11.16 30.96 C 26.12 30.45 25.62 1.26 10.34 2.20 Z" />
<path fill="#000000" opacity="1.00" d=" M 9.70 22.70 C 10.28 22.45 11.44 21.95 12.02 21.70 C 13.18 22.08 14.33 22.46 15.49 22.85 C 16.96 26.88 13.86 29.95 9.84 28.48 C 9.45 27.33 9.08 26.18 8.71 25.02 C 8.96 24.44 9.45 23.28 9.70 22.70 Z" />
</g>
</svg>
