<?xml version="1.0" encoding="UTF-8" ?>
<!DOCTYPE svg PUBLIC "-//W3C//DTD SVG 1.1//EN" "http://www.w3.org/Graphics/SVG/1.1/DTD/svg11.dtd">
<svg width="33pt" height="31pt" viewBox="0 0 33 31" version="1.1" xmlns="http://www.w3.org/2000/svg">
<g id="#292929d7">
<path fill="#292929" opacity="0.84" d=" M 14.07 0.00 L 19.31 0.00 C 22.26 1.06 25.32 2.16 27.71 4.27 C 30.18 6.37 31.49 9.44 33.00 12.23 L 33.00 17.33 C 32.07 20.58 30.76 23.88 28.24 26.24 C 25.93 28.55 22.77 29.59 19.90 31.00 L 13.16 31.00 C 12.78 30.60 12.02 29.79 11.64 29.38 C 14.64 29.71 17.73 30.33 20.64 29.13 L 20.98 29.03 C 23.84 28.35 26.27 26.63 28.32 24.58 C 28.53 24.32 28.95 23.81 29.16 23.55 C 29.87 22.38 30.50 21.15 31.07 19.90 C 31.15 19.58 31.32 18.94 31.41 18.62 C 31.65 17.05 31.83 15.48 31.94 13.90 L 31.99 13.41 C 31.89 13.17 31.68 12.69 31.58 12.46 C 30.06 7.42 26.01 3.17 20.84 1.90 L 20.41 1.78 C 19.23 1.50 18.03 1.28 16.83 1.13 L 16.18 1.14 C 15.69 1.17 14.70 1.23 14.21 1.27 L 14.07 0.00 Z" />
</g>
<g id="#1e1e1ecd">
<path fill="#1e1e1e" opacity="0.80" d=" M 0.00 13.15 C 1.48 7.42 5.67 2.51 11.42 0.79 L 13.32 1.33 C 12.64 1.56 11.26 2.03 10.57 2.26 C 10.34 2.37 9.88 2.58 9.65 2.69 C 8.25 3.52 6.89 4.41 5.51 5.26 L 5.16 5.47 C 5.03 5.69 4.77 6.14 4.64 6.37 C 2.44 9.27 0.90 12.78 1.13 16.49 L 1.19 16.87 C 1.74 20.09 3.08 23.21 5.54 25.42 C 7.07 27.20 9.65 27.46 11.08 29.33 C 5.36 29.17 2.20 23.40 0.00 18.85 L 0.00 13.15 Z" />
</g>
<g id="#ffffffff">
<path fill="#ffffff" opacity="1.00" d=" M 13.32 1.33 C 13.55 1.31 13.99 1.28 14.21 1.27 C 14.70 1.23 15.69 1.17 16.18 1.14 C 15.48 2.42 15.69 3.39 16.83 4.03 C 16.83 3.30 16.83 1.85 16.83 1.13 C 18.03 1.28 19.23 1.50 20.41 1.78 C 19.70 3.45 19.69 5.39 20.32 7.09 C 21.65 5.69 21.13 3.59 20.84 1.90 C 26.01 3.17 30.06 7.42 31.58 12.46 C 30.00 12.76 28.21 12.62 26.89 13.69 C 28.49 14.35 30.29 14.30 31.94 13.90 C 31.83 15.48 31.65 17.05 31.41 18.62 C 30.26 17.82 29.11 17.76 27.95 18.45 C 28.87 19.17 29.92 19.66 31.07 19.90 C 30.50 21.15 29.87 22.38 29.16 23.55 C 28.28 22.68 27.41 21.79 26.54 20.90 C 25.15 21.00 23.72 21.03 22.45 21.69 C 23.23 21.79 24.79 22.00 25.57 22.10 C 26.49 22.93 27.40 23.75 28.32 24.58 C 26.27 26.63 23.84 28.35 20.98 29.03 C 20.98 28.37 20.96 27.06 20.96 26.40 C 20.21 25.36 19.22 24.49 17.99 24.11 C 18.16 26.07 19.60 27.56 20.64 29.13 C 17.73 30.33 14.64 29.71 11.64 29.38 C 11.50 29.37 11.22 29.35 11.08 29.33 C 9.65 27.46 7.07 27.20 5.54 25.42 C 3.08 23.21 1.74 20.09 1.19 16.87 C 3.26 17.44 5.42 16.81 7.05 15.47 C 5.14 14.21 2.94 15.79 1.13 16.49 C 0.90 12.78 2.44 9.27 4.64 6.37 C 5.63 7.61 7.53 8.75 9.01 7.61 C 7.89 6.75 6.71 5.99 5.51 5.26 C 6.89 4.41 8.25 3.52 9.65 2.69 C 10.46 4.35 11.83 6.26 13.94 6.01 C 13.41 4.33 11.95 3.22 10.57 2.26 C 11.26 2.03 12.64 1.56 13.32 1.33 M 25.37 8.93 C 26.86 9.05 27.56 8.45 27.47 7.14 C 26.00 7.03 25.30 7.63 25.37 8.93 M 15.51 13.53 C 15.45 14.46 15.32 16.34 15.26 17.28 C 15.98 17.58 17.43 18.20 18.15 18.50 C 18.97 17.76 19.75 16.99 20.50 16.18 C 20.20 15.45 19.59 13.99 19.28 13.26 C 18.34 13.32 16.46 13.46 15.51 13.53 M 4.01 22.64 L 4.40 22.68 C 5.24 21.63 6.82 20.50 6.70 19.06 C 4.91 18.56 3.89 21.22 4.01 22.64 M 11.78 25.78 C 11.21 26.11 10.09 26.78 9.53 27.11 C 10.32 27.08 11.90 27.02 12.70 26.99 C 13.34 25.18 14.20 23.47 15.18 21.83 C 12.75 21.44 12.50 24.14 11.78 25.78 Z" />
</g>
<g id="#ff6262ff">
<path fill="#ff6262" opacity="1.00" d=" M 16.18 1.14 L 16.83 1.13 C 16.83 1.85 16.83 3.30 16.83 4.03 C 15.69 3.39 15.48 2.42 16.18 1.14 Z" />
<path fill="#ff6262" opacity="1.00" d=" M 9.65 2.69 C 9.88 2.58 10.34 2.37 10.57 2.26 C 11.95 3.22 13.41 4.33 13.94 6.01 C 11.83 6.26 10.46 4.35 9.65 2.69 Z" />
<path fill="#ff6262" opacity="1.00" d=" M 20.41 1.78 L 20.84 1.90 C 21.13 3.59 21.65 5.69 20.32 7.09 C 19.69 5.39 19.70 3.45 20.41 1.78 Z" />
<path fill="#ff6262" opacity="1.00" d=" M 5.16 5.47 L 5.51 5.26 C 6.71 5.99 7.89 6.75 9.01 7.61 C 7.53 8.75 5.63 7.61 4.64 6.37 C 4.77 6.14 5.03 5.69 5.16 5.47 Z" />
<path fill="#ff6262" opacity="1.00" d=" M 25.37 8.93 C 25.30 7.63 26.00 7.03 27.47 7.14 C 27.56 8.45 26.86 9.05 25.37 8.93 Z" />
<path fill="#ff6262" opacity="1.00" d=" M 1.13 16.49 C 2.94 15.79 5.14 14.21 7.05 15.47 C 5.42 16.81 3.26 17.44 1.19 16.87 L 1.13 16.49 Z" />
<path fill="#ff6262" opacity="1.00" d=" M 27.95 18.45 C 29.11 17.76 30.26 17.82 31.41 18.62 C 31.32 18.94 31.15 19.58 31.07 19.90 C 29.92 19.66 28.87 19.17 27.95 18.45 Z" />
<path fill="#ff6262" opacity="1.00" d=" M 22.45 21.69 C 23.72 21.03 25.15 21.00 26.54 20.90 C 27.41 21.79 28.28 22.68 29.16 23.55 C 28.95 23.81 28.53 24.32 28.32 24.58 C 27.40 23.75 26.49 22.93 25.57 22.10 C 24.79 22.00 23.23 21.79 22.45 21.69 Z" />
<path fill="#ff6262" opacity="1.00" d=" M 11.78 25.78 C 12.50 24.14 12.75 21.44 15.18 21.83 C 14.20 23.47 13.34 25.18 12.70 26.99 C 11.90 27.02 10.32 27.08 9.53 27.11 C 10.09 26.78 11.21 26.11 11.78 25.78 Z" />
<path fill="#ff6262" opacity="1.00" d=" M 17.99 24.11 C 19.22 24.49 20.21 25.36 20.96 26.40 C 20.96 27.06 20.98 28.37 20.98 29.03 L 20.64 29.13 C 19.60 27.56 18.16 26.07 17.99 24.11 Z" />
</g>
<g id="#e76464ff">
<path fill="#e76464" opacity="1.00" d=" M 31.58 12.46 C 31.68 12.69 31.89 13.17 31.99 13.41 L 31.94 13.90 C 30.29 14.30 28.49 14.35 26.89 13.69 C 28.21 12.62 30.00 12.76 31.58 12.46 Z" />
</g>
<g id="#0c0c0cff">
<path fill="#0c0c0c" opacity="1.00" d=" M 15.51 13.53 C 16.46 13.46 18.34 13.32 19.28 13.26 C 19.59 13.99 20.20 15.45 20.50 16.18 C 19.75 16.99 18.97 17.76 18.15 18.50 C 17.43 18.20 15.98 17.58 15.26 17.28 C 15.32 16.34 15.45 14.46 15.51 13.53 Z" />
</g>
<g id="#ff8181ff">
<path fill="#ff8181" opacity="1.00" d=" M 4.01 22.64 C 3.89 21.22 4.91 18.56 6.70 19.06 C 6.82 20.50 5.24 21.63 4.40 22.68 L 4.01 22.64 Z" />
</g>
</svg>
