<?xml version="1.0" encoding="UTF-8" ?>
<!DOCTYPE svg PUBLIC "-//W3C//DTD SVG 1.1//EN" "http://www.w3.org/Graphics/SVG/1.1/DTD/svg11.dtd">
<svg width="18pt" height="23pt" viewBox="0 0 18 23" version="1.1" xmlns="http://www.w3.org/2000/svg">
<g id="#000000d8">
<path fill="#000000" opacity="0.85" d=" M 0.00 0.00 L 2.33 0.00 C 4.55 3.15 6.53 6.49 9.00 9.46 C 11.47 6.50 13.43 3.16 15.62 0.00 L 18.00 0.00 L 18.00 0.44 C 15.36 4.08 12.47 7.61 10.43 11.63 C 12.85 15.31 15.62 18.74 18.00 22.45 L 18.00 23.00 L 15.67 23.00 C 13.51 19.79 11.58 16.40 9.00 13.50 C 6.41 16.39 4.48 19.78 2.35 23.00 L 0.00 23.00 L 0.00 22.46 C 2.37 18.74 5.16 15.32 7.57 11.64 C 5.53 7.62 2.65 4.08 0.00 0.46 L 0.00 0.00 Z" />
</g>
</svg>
