<?xml version="1.0" encoding="UTF-8" ?>
<!DOCTYPE svg PUBLIC "-//W3C//DTD SVG 1.1//EN" "http://www.w3.org/Graphics/SVG/1.1/DTD/svg11.dtd">
<svg width="34pt" height="27pt" viewBox="0 0 34 27" version="1.1" xmlns="http://www.w3.org/2000/svg">
<g id="#010101fe">
<path fill="#010101" opacity="1.00" d=" M 2.18 5.23 C 12.20 2.68 22.56 1.65 32.83 0.67 C 33.47 6.81 33.67 13.02 32.83 19.15 C 32.57 22.05 29.63 23.36 27.28 24.33 C 22.13 26.62 16.14 26.91 10.77 25.23 C 7.09 24.07 5.65 20.23 3.75 17.26 C 1.46 14.00 1.18 9.87 1.01 6.02 C 1.30 5.82 1.89 5.43 2.18 5.23 M 4.57 7.58 C 4.06 12.91 7.21 17.55 11.01 20.93 C 13.29 22.58 16.12 24.09 19.02 23.22 C 22.81 22.26 28.39 22.31 29.78 17.80 C 30.27 13.41 30.80 8.75 29.46 4.45 C 21.12 4.89 12.71 5.66 4.57 7.58 Z" />
</g>
<g id="#33333333">
<path fill="#333333" opacity="0.20" d=" M 4.57 7.58 C 12.71 5.66 21.12 4.89 29.46 4.45 C 30.80 8.75 30.27 13.41 29.78 17.80 C 28.39 22.31 22.81 22.26 19.02 23.22 C 16.12 24.09 13.29 22.58 11.01 20.93 C 7.21 17.55 4.06 12.91 4.57 7.58 Z" />
</g>
</svg>
