<?xml version="1.0" encoding="UTF-8" ?>
<!DOCTYPE svg PUBLIC "-//W3C//DTD SVG 1.1//EN" "http://www.w3.org/Graphics/SVG/1.1/DTD/svg11.dtd">
<svg width="61pt" height="29pt" viewBox="0 0 61 29" version="1.1" xmlns="http://www.w3.org/2000/svg">
<g id="#000000fe">
<path fill="#000000" opacity="1.00" d=" M 33.76 3.51 C 37.60 1.76 41.90 1.64 46.04 1.25 C 50.24 1.05 55.28 1.07 58.31 4.47 C 60.52 9.40 61.31 15.50 58.33 20.29 C 52.59 21.64 45.89 24.33 40.49 20.62 C 35.82 17.71 34.47 12.01 33.32 7.01 C 30.87 7.39 28.43 7.80 26.00 8.22 C 26.16 13.46 26.55 19.50 22.78 23.69 C 19.28 28.20 13.04 28.06 7.89 28.33 C 6.15 28.59 4.49 27.82 3.59 26.31 C 1.05 22.24 0.28 17.06 1.44 12.42 C 4.40 8.07 9.99 6.94 14.84 6.11 C 21.10 4.83 27.71 5.84 33.76 3.51 M 35.95 5.41 C 36.77 9.24 37.86 13.01 39.12 16.71 C 43.74 20.23 49.95 20.27 55.18 18.17 C 56.44 17.72 57.42 16.49 57.36 15.11 C 57.67 10.81 56.75 5.31 51.86 4.09 C 46.60 3.13 41.13 4.31 35.95 5.41 M 8.20 10.42 C 6.28 11.38 5.09 13.31 3.64 14.82 C 4.35 18.13 3.84 22.31 6.31 24.87 C 12.21 26.60 19.29 24.65 23.01 19.55 C 23.20 15.74 23.26 11.93 23.13 8.12 C 18.06 7.97 13.00 8.84 8.20 10.42 Z" />
</g>
<g id="#0000009e">
<path fill="#000000" opacity="0.62" d=" M 35.95 5.41 C 41.13 4.31 46.60 3.13 51.86 4.09 C 56.75 5.31 57.67 10.81 57.36 15.11 C 57.42 16.49 56.44 17.72 55.18 18.17 C 49.95 20.27 43.74 20.23 39.12 16.71 C 37.86 13.01 36.77 9.24 35.95 5.41 Z" />
<path fill="#000000" opacity="0.62" d=" M 8.20 10.42 C 13.00 8.84 18.06 7.97 23.13 8.12 C 23.26 11.93 23.20 15.74 23.01 19.55 C 19.29 24.65 12.21 26.60 6.31 24.87 C 3.84 22.31 4.35 18.13 3.64 14.82 C 5.09 13.31 6.28 11.38 8.20 10.42 Z" />
</g>
</svg>
