<?xml version="1.0" encoding="UTF-8" ?>
<!DOCTYPE svg PUBLIC "-//W3C//DTD SVG 1.1//EN" "http://www.w3.org/Graphics/SVG/1.1/DTD/svg11.dtd">
<svg width="51pt" height="26pt" viewBox="0 0 51 26" version="1.1" xmlns="http://www.w3.org/2000/svg">
<g id="#00000013">
<path fill="#000000" opacity="0.07" d=" M 0.00 0.00 L 20.86 0.00 C 14.15 3.41 7.02 5.87 0.20 9.05 C 7.99 14.52 15.86 19.89 23.82 25.11 C 32.56 19.74 41.48 14.66 50.25 9.34 C 40.51 6.28 30.69 3.45 21.08 0.00 L 51.00 0.00 L 51.00 26.00 L 0.00 26.00 L 0.00 0.00 Z" />
<path fill="#000000" opacity="0.07" d=" M 23.42 8.60 C 30.18 8.00 31.47 18.49 24.59 19.39 C 17.82 20.01 16.53 9.50 23.42 8.60 Z" />
</g>
<g id="#ffffffff">
<path fill="#ffffff" opacity="1.00" d=" M 20.86 0.00 L 21.08 0.00 C 30.69 3.45 40.51 6.28 50.25 9.34 C 41.48 14.66 32.56 19.74 23.82 25.11 C 15.86 19.89 7.99 14.52 0.20 9.05 C 7.02 5.87 14.15 3.41 20.86 0.00 M 23.42 8.60 C 16.53 9.50 17.82 20.01 24.59 19.39 C 31.47 18.49 30.18 8.00 23.42 8.60 Z" />
</g>
</svg>
