<?xml version="1.0" encoding="UTF-8" ?>
<!DOCTYPE svg PUBLIC "-//W3C//DTD SVG 1.1//EN" "http://www.w3.org/Graphics/SVG/1.1/DTD/svg11.dtd">
<svg width="24pt" height="33pt" viewBox="0 0 24 33" version="1.1" xmlns="http://www.w3.org/2000/svg">
<g id="#000000fd">
<path fill="#000000" opacity="1.00" d=" M 10.55 0.00 L 13.28 0.00 C 19.73 1.74 22.97 8.19 24.00 14.30 L 24.00 18.57 C 23.04 24.70 19.81 31.11 13.45 33.00 L 10.72 33.00 C 4.26 31.26 1.03 24.81 0.00 18.70 L 0.00 14.43 C 0.96 8.30 4.18 1.89 10.55 0.00 M 10.32 2.20 C -0.70 6.49 -0.88 25.43 9.54 30.57 C 16.92 32.92 21.79 24.32 21.96 18.03 C 22.72 11.18 18.70 0.82 10.32 2.20 Z" />
<path fill="#000000" opacity="1.00" d=" M 8.32 18.21 C 7.97 15.38 9.45 13.33 12.00 12.30 C 14.55 13.32 16.03 15.38 15.68 18.21 C 13.42 20.08 10.58 20.09 8.32 18.21 Z" />
</g>
</svg>
