<?xml version="1.0" encoding="UTF-8" ?>
<!DOCTYPE svg PUBLIC "-//W3C//DTD SVG 1.1//EN" "http://www.w3.org/Graphics/SVG/1.1/DTD/svg11.dtd">
<svg width="33pt" height="31pt" viewBox="0 0 33 31" version="1.1" xmlns="http://www.w3.org/2000/svg">
<g id="#00000089">
<path fill="#000000" opacity="0.54" d=" M 14.12 0.00 L 19.55 0.00 C 26.02 1.40 31.44 6.26 33.00 12.77 L 33.00 18.35 C 31.01 26.21 23.06 32.21 14.86 31.00 L 11.76 31.00 C 11.81 30.64 11.91 29.91 11.96 29.54 C 12.62 29.40 13.95 29.11 14.62 28.97 L 13.96 30.12 C 18.55 30.09 23.48 29.20 26.97 25.97 C 30.88 22.66 33.03 16.96 31.39 11.97 C 30.06 6.78 25.46 2.80 20.32 1.62 C 19.69 1.45 18.45 1.11 17.82 0.94 C 13.59 1.05 9.15 2.11 5.98 5.08 C 1.96 8.47 -0.02 14.33 1.71 19.38 C 2.88 23.79 6.58 26.97 10.57 28.85 C 10.20 28.99 9.45 29.27 9.08 29.42 C 4.48 27.49 1.61 23.18 0.00 18.63 L 0.00 12.81 C 1.58 6.09 7.31 0.98 14.12 0.00 Z" />
</g>
<g id="#ffffffff">
<path fill="#ffffff" opacity="1.00" d=" M 5.98 5.08 C 9.15 2.11 13.59 1.05 17.82 0.94 C 18.24 1.20 19.07 1.71 19.49 1.97 L 20.32 1.62 C 25.46 2.80 30.06 6.78 31.39 11.97 C 33.03 16.96 30.88 22.66 26.97 25.97 C 23.48 29.20 18.55 30.09 13.96 30.12 L 14.62 28.97 C 13.95 29.11 12.62 29.40 11.96 29.54 C 11.61 29.37 10.92 29.02 10.57 28.85 C 6.58 26.97 2.88 23.79 1.71 19.38 C -0.02 14.33 1.96 8.47 5.98 5.08 M 15.56 13.56 C 15.49 14.49 15.35 16.35 15.29 17.28 C 15.98 17.58 17.38 18.17 18.08 18.47 C 19.03 17.83 19.83 17.04 20.47 16.09 C 20.17 15.39 19.58 13.98 19.28 13.28 C 18.35 13.35 16.49 13.49 15.56 13.56 Z" />
</g>
<g id="#a2a2a2ff">
<path fill="#a2a2a2" opacity="1.00" d=" M 17.82 0.94 C 18.45 1.11 19.69 1.45 20.32 1.62 L 19.49 1.97 C 19.07 1.71 18.24 1.20 17.82 0.94 Z" />
</g>
<g id="#0c0c0cff">
<path fill="#0c0c0c" opacity="1.00" d=" M 15.56 13.56 C 16.49 13.49 18.35 13.35 19.28 13.28 C 19.58 13.98 20.17 15.39 20.47 16.09 C 19.83 17.04 19.03 17.83 18.08 18.47 C 17.38 18.17 15.98 17.58 15.29 17.28 C 15.35 16.35 15.49 14.49 15.56 13.56 Z" />
</g>
</svg>
