<?xml version="1.0" encoding="UTF-8" ?>
<!DOCTYPE svg PUBLIC "-//W3C//DTD SVG 1.1//EN" "http://www.w3.org/Graphics/SVG/1.1/DTD/svg11.dtd">
<svg width="27pt" height="24pt" viewBox="0 0 27 24" version="1.1" xmlns="http://www.w3.org/2000/svg">
<g id="#000000fe">
<path fill="#000000" opacity="1.00" d=" M 12.40 1.55 C 16.60 1.38 21.69 -1.42 25.35 1.55 C 27.14 8.25 26.37 17.11 19.96 21.21 C 15.69 23.27 10.75 23.33 6.10 23.26 C 2.81 22.05 1.95 18.06 1.20 14.99 C 0.96 11.98 0.15 8.03 2.77 5.81 C 5.37 3.34 8.95 2.26 12.40 1.55 M 7.66 5.61 C 6.15 6.80 4.98 8.35 3.69 9.76 C 4.07 13.00 4.13 16.41 5.67 19.36 C 8.48 21.50 12.47 20.27 15.65 19.68 C 18.85 19.25 20.90 16.66 23.00 14.50 C 23.21 10.72 23.28 6.93 23.12 3.14 C 17.87 2.92 12.62 3.95 7.66 5.61 Z" />
</g>
<g id="#0000009e">
<path fill="#000000" opacity="0.62" d=" M 7.66 5.61 C 12.62 3.95 17.87 2.92 23.12 3.14 C 23.28 6.93 23.21 10.72 23.00 14.50 C 20.90 16.66 18.85 19.25 15.65 19.68 C 12.47 20.27 8.48 21.50 5.67 19.36 C 4.13 16.41 4.07 13.00 3.69 9.76 C 4.98 8.35 6.15 6.80 7.66 5.61 Z" />
</g>
</svg>
