<?xml version="1.0" encoding="UTF-8" ?>
<!DOCTYPE svg PUBLIC "-//W3C//DTD SVG 1.1//EN" "http://www.w3.org/Graphics/SVG/1.1/DTD/svg11.dtd">
<svg width="24pt" height="24pt" viewBox="0 0 24 24" version="1.1" xmlns="http://www.w3.org/2000/svg">
<g id="#0000006e">
<path fill="#000000" opacity="0.43" d=" M 0.00 0.00 L 24.00 0.00 L 24.00 24.00 L 0.00 24.00 L 0.00 0.00 M 10.29 3.30 C 3.04 5.16 1.76 16.24 8.26 19.81 C 13.94 23.70 21.89 17.37 20.94 11.04 C 20.70 5.92 15.30 1.68 10.29 3.30 Z" />
<path fill="#000000" opacity="0.43" d=" M 12.56 10.98 C 12.92 7.33 19.10 7.32 19.43 10.99 C 20.26 13.49 17.46 14.48 16.00 15.86 C 14.55 14.48 11.76 13.48 12.56 10.98 Z" />
</g>
<g id="#7f7f7f7f">
<path fill="#7f7f7f" opacity="0.50" d=" M 10.29 3.30 C 15.30 1.68 20.70 5.92 20.94 11.04 C 21.89 17.37 13.94 23.70 8.26 19.81 C 1.76 16.24 3.04 5.16 10.29 3.30 M 12.56 10.98 C 11.76 13.48 14.55 14.48 16.00 15.86 C 17.46 14.48 20.26 13.49 19.43 10.99 C 19.10 7.32 12.92 7.33 12.56 10.98 Z" />
</g>
</svg>
