<?xml version="1.0" encoding="UTF-8" ?>
<!DOCTYPE svg PUBLIC "-//W3C//DTD SVG 1.1//EN" "http://www.w3.org/Graphics/SVG/1.1/DTD/svg11.dtd">
<svg width="103pt" height="48pt" viewBox="0 0 103 48" version="1.1" xmlns="http://www.w3.org/2000/svg">
<g id="#000000ff">
<path fill="#000000" opacity="1.00" d=" M 30.48 12.25 C 49.75 8.69 69.08 5.36 88.27 1.36 C 91.37 0.52 94.20 2.66 96.27 4.72 C 100.66 9.25 101.23 15.82 103.00 21.57 L 103.00 25.63 C 100.58 33.56 91.93 36.51 84.80 38.68 C 78.14 38.68 72.23 34.85 67.18 30.85 C 65.41 37.75 59.53 42.26 53.60 45.54 C 50.01 47.26 45.93 47.74 42.00 47.42 C 37.90 46.84 34.72 43.90 31.79 41.21 C 21.49 42.35 11.62 45.74 1.37 47.17 C 1.07 44.00 0.64 40.85 0.00 37.73 L 0.00 37.09 C 9.05 31.20 17.73 24.77 26.71 18.78 C 29.17 17.50 29.61 14.60 30.48 12.25 M 87.27 6.51 C 85.10 6.89 82.95 7.34 80.80 7.82 C 80.66 7.85 80.39 7.91 80.25 7.94 C 77.43 8.56 74.59 9.07 71.74 9.48 C 71.60 9.50 71.33 9.54 71.20 9.56 C 69.66 9.78 68.14 10.05 66.63 10.37 C 66.47 10.40 66.16 10.47 66.00 10.51 L 65.09 10.72 C 64.94 10.75 64.62 10.83 64.47 10.86 C 61.58 11.55 58.65 12.03 55.72 12.50 C 55.58 12.52 55.31 12.57 55.17 12.60 C 51.71 13.26 48.25 13.99 44.76 14.46 C 44.62 14.48 44.35 14.52 44.22 14.54 C 42.69 14.77 41.18 15.04 39.68 15.38 C 39.55 15.41 39.29 15.47 39.16 15.50 C 37.74 15.72 36.49 16.25 35.39 17.10 C 35.31 17.19 35.15 17.36 35.07 17.44 C 32.47 22.19 32.71 28.11 33.67 33.32 C 34.86 39.75 41.69 45.04 48.25 42.61 C 48.37 42.57 48.63 42.50 48.76 42.47 C 53.23 40.89 57.37 38.08 60.47 34.48 C 62.46 32.32 61.52 29.14 62.66 26.67 C 65.29 25.56 69.20 25.41 71.25 27.79 C 74.88 31.36 80.01 34.58 85.28 33.64 C 85.41 33.60 85.67 33.54 85.80 33.51 C 89.50 32.35 93.30 30.88 96.20 28.23 C 98.96 25.72 97.27 21.91 97.13 18.77 C 97.11 18.62 97.08 18.33 97.06 18.18 C 96.78 14.69 95.50 11.32 93.59 8.41 C 92.32 6.55 89.97 5.67 87.81 6.41 C 87.67 6.44 87.40 6.48 87.27 6.51 Z" />
</g>
<g id="#4c4c4c4c">
<path fill="#4c4c4c" opacity="0.30" d=" M 87.81 6.41 C 89.97 5.67 92.32 6.55 93.59 8.41 C 95.50 11.32 96.78 14.69 97.06 18.18 L 97.13 18.77 C 97.27 21.91 98.96 25.72 96.20 28.23 C 93.30 30.88 89.50 32.35 85.80 33.51 C 85.67 33.54 85.41 33.60 85.28 33.64 C 80.01 34.58 74.88 31.36 71.25 27.79 C 69.20 25.41 65.29 25.56 62.66 26.67 C 61.52 29.14 62.46 32.32 60.47 34.48 C 57.37 38.08 53.23 40.89 48.76 42.47 C 48.63 42.50 48.37 42.57 48.25 42.61 C 41.69 45.04 34.86 39.75 33.67 33.32 C 32.71 28.11 32.47 22.19 35.07 17.44 C 35.15 17.36 35.31 17.19 35.39 17.10 C 36.49 16.25 37.74 15.72 39.16 15.50 C 39.29 15.47 39.55 15.41 39.68 15.38 C 41.18 15.04 42.69 14.77 44.22 14.54 C 44.35 14.52 44.62 14.48 44.76 14.46 C 48.25 13.99 51.71 13.26 55.17 12.60 C 55.31 12.57 55.58 12.52 55.72 12.50 C 58.65 12.03 61.58 11.55 64.47 10.86 L 65.09 10.72 L 66.00 10.51 C 66.16 10.47 66.47 10.40 66.63 10.37 C 68.14 10.05 69.66 9.78 71.20 9.56 C 71.33 9.54 71.60 9.50 71.74 9.48 C 74.59 9.07 77.43 8.56 80.25 7.94 L 80.80 7.82 C 82.95 7.34 85.10 6.89 87.27 6.51 C 87.40 6.48 87.67 6.44 87.81 6.41 Z" />
</g>
</svg>
