<?xml version="1.0" encoding="UTF-8" ?>
<!DOCTYPE svg PUBLIC "-//W3C//DTD SVG 1.1//EN" "http://www.w3.org/Graphics/SVG/1.1/DTD/svg11.dtd">
<svg width="24pt" height="33pt" viewBox="0 0 24 33" version="1.1" xmlns="http://www.w3.org/2000/svg">
<g id="#000000fd">
<path fill="#000000" opacity="1.00" d=" M 10.49 0.00 L 13.39 0.00 C 19.66 1.80 22.81 8.00 24.00 13.96 L 24.00 18.87 C 22.90 24.87 19.75 31.08 13.51 33.00 L 10.61 33.00 C 4.33 31.20 1.19 25.00 0.00 19.04 L 0.00 14.13 C 1.10 8.13 4.25 1.92 10.49 0.00 M 6.45 4.44 C 0.68 10.37 1.27 19.60 4.29 26.72 C 4.55 23.13 5.96 19.53 10.28 20.31 C 11.91 22.55 12.11 25.20 10.39 27.45 C 8.55 27.43 6.72 27.42 4.88 27.42 C 7.75 30.09 12.09 32.47 15.83 29.91 C 23.50 24.38 23.90 11.96 18.05 4.96 C 15.28 1.36 9.49 1.00 6.45 4.44 Z" />
</g>
</svg>
