<?xml version="1.0" encoding="UTF-8" ?>
<!DOCTYPE svg PUBLIC "-//W3C//DTD SVG 1.1//EN" "http://www.w3.org/Graphics/SVG/1.1/DTD/svg11.dtd">
<svg width="51pt" height="21pt" viewBox="0 0 51 21" version="1.1" xmlns="http://www.w3.org/2000/svg">
<g id="#ffffffff">
<path fill="#ffffff" opacity="1.00" d=" M 23.73 0.00 L 27.00 0.00 C 34.01 0.73 41.50 1.31 47.50 5.41 C 49.22 6.47 50.30 8.23 51.00 10.09 L 51.00 10.89 C 49.83 14.82 45.96 16.90 42.37 18.19 C 37.54 20.04 32.36 20.39 27.28 21.00 L 24.00 21.00 C 16.95 20.27 9.39 19.68 3.39 15.51 C 1.72 14.45 0.69 12.72 0.00 10.92 L 0.00 10.11 C 0.68 8.25 1.76 6.50 3.47 5.43 C 9.39 1.35 16.80 0.77 23.73 0.00 Z" />
</g>
</svg>
