<?xml version="1.0" encoding="UTF-8" ?>
<!DOCTYPE svg PUBLIC "-//W3C//DTD SVG 1.1//EN" "http://www.w3.org/Graphics/SVG/1.1/DTD/svg11.dtd">
<svg width="56pt" height="52pt" viewBox="0 0 56 52" version="1.1" xmlns="http://www.w3.org/2000/svg">
<g id="#ffffffff">
<path fill="#ffffff" opacity="1.00" d=" M 0.98 2.35 C 1.50 1.78 2.54 0.65 3.06 0.09 C 5.52 0.53 8.12 0.52 10.43 1.57 C 25.61 8.53 40.79 15.51 56.00 22.43 L 56.00 38.42 C 55.83 40.00 55.62 41.58 55.43 43.16 C 50.82 42.36 46.07 39.85 41.39 41.58 C 30.90 44.80 20.36 47.86 9.85 51.03 C 7.79 51.78 5.62 51.29 3.52 51.05 C 2.79 49.43 1.53 47.92 1.59 46.05 C 1.42 31.48 1.28 16.92 0.98 2.35 Z" />
</g>
</svg>
