<?xml version="1.0" encoding="UTF-8" ?>
<!DOCTYPE svg PUBLIC "-//W3C//DTD SVG 1.1//EN" "http://www.w3.org/Graphics/SVG/1.1/DTD/svg11.dtd">
<svg width="120pt" height="160pt" viewBox="0 0 120 160" version="1.1" xmlns="http://www.w3.org/2000/svg">
<g id="#cf7318ff">
<path fill="#cf7318" opacity="1.00" d=" M 10.02 4.95 C 37.08 3.54 64.13 2.29 91.19 0.91 C 93.31 3.36 96.14 5.56 96.79 8.92 C 103.44 34.70 110.10 60.48 116.82 86.25 C 117.91 90.11 117.03 94.12 116.94 98.05 C 110.19 105.44 101.27 110.29 93.54 116.52 C 92.98 124.29 93.18 132.09 92.45 139.85 C 91.88 146.56 92.38 153.33 91.37 160.00 L 2.42 160.00 C 1.56 155.02 2.08 149.95 2.09 144.93 C 2.72 128.94 2.96 112.94 3.04 96.93 C 3.64 80.63 3.99 64.32 4.02 48.01 C 4.40 35.29 4.88 22.56 4.91 9.83 C 6.61 8.20 8.31 6.57 10.02 4.95 Z" />
</g>
</svg>
