<?xml version="1.0" encoding="UTF-8" ?>
<!DOCTYPE svg PUBLIC "-//W3C//DTD SVG 1.1//EN" "http://www.w3.org/Graphics/SVG/1.1/DTD/svg11.dtd">
<svg width="112pt" height="125pt" viewBox="0 0 112 125" version="1.1" xmlns="http://www.w3.org/2000/svg">
<g id="#cf7318ff">
<path fill="#cf7318" opacity="1.00" d=" M 84.40 0.00 L 89.74 0.00 C 91.43 0.71 93.10 1.49 94.75 2.28 C 99.77 23.57 105.41 44.72 110.51 65.99 C 109.56 67.58 108.69 69.22 107.59 70.70 C 104.47 73.69 99.27 74.16 97.07 78.14 C 96.09 79.74 94.99 81.28 94.18 82.97 C 93.31 96.97 92.85 110.99 92.05 125.00 L 0.77 125.00 C 1.05 115.17 0.81 105.34 1.38 95.52 C 2.08 80.69 1.72 65.83 2.48 51.00 C 3.10 37.51 2.68 23.99 3.47 10.51 C 5.83 8.38 8.16 6.22 10.46 4.01 C 26.33 3.59 42.16 2.20 58.03 1.69 C 66.79 0.72 75.64 1.14 84.40 0.00 Z" />
</g>
</svg>
