<?xml version="1.0" encoding="UTF-8" standalone="no"?>
<!-- Created with Inkscape (http://www.inkscape.org/) -->

<svg
   xmlns:dc="http://purl.org/dc/elements/1.1/"
   xmlns:cc="http://creativecommons.org/ns#"
   xmlns:rdf="http://www.w3.org/1999/02/22-rdf-syntax-ns#"
   xmlns:svg="http://www.w3.org/2000/svg"
   xmlns="http://www.w3.org/2000/svg"
   xmlns:sodipodi="http://sodipodi.sourceforge.net/DTD/sodipodi-0.dtd"
   xmlns:inkscape="http://www.inkscape.org/namespaces/inkscape"
   width="128"
   height="128"
   id="svg2"
   version="1.1"
   inkscape:version="0.48+devel r10627"
   sodipodi:docname="yellowSteel.svg">
  <defs
     id="defs4" />
  <sodipodi:namedview
     id="base"
     pagecolor="#ffffff"
     bordercolor="#666666"
     borderopacity="1.0"
     inkscape:pageopacity="0.0"
     inkscape:pageshadow="2"
     inkscape:zoom="1.28"
     inkscape:cx="73.243103"
     inkscape:cy="-6.4683108"
     inkscape:document-units="px"
     inkscape:current-layer="layer1"
     showgrid="false"
     fit-margin-top="0"
     fit-margin-left="0"
     fit-margin-right="0"
     fit-margin-bottom="0"
     inkscape:window-width="910"
     inkscape:window-height="728"
     inkscape:window-x="911"
     inkscape:window-y="245"
     inkscape:window-maximized="0" />
  <metadata
     id="metadata7">
    <rdf:RDF>
      <cc:Work
         rdf:about="">
        <dc:format>image/svg+xml</dc:format>
        <dc:type
           rdf:resource="http://purl.org/dc/dcmitype/StillImage" />
        <dc:title></dc:title>
      </cc:Work>
    </rdf:RDF>
  </metadata>
  <g
     inkscape:label="Layer 1"
     inkscape:groupmode="layer"
     id="layer1"
     transform="translate(0,-924.36218)">
    <g
       id="#c6c7c6ff"
       transform="matrix(8,0,0,8,0,924.36218)"
       style="fill:#ccff42">
      <path
         style="fill:#ccff42"
         inkscape:connector-curvature="0"
         d="m 0,0 16,0 0,1.98 C 15.51,1.99 14.52,2.01 14.03,2.02 14.02,2.51 13.99,3.5 13.97,4 13.48,4 12.49,4 12,3.99 9.33,4 6.67,4 4,4.01 4.01,6.67 4,9.33 4,12 4,12.49 3.99,13.48 3.99,13.97 3.5,13.99 2.51,14.02 2.02,14.03 2.01,14.52 1.99,15.51 1.98,16 L 0,16 0,0 z"
         id="path13" />
    </g>
    <g
       id="#7b7d7bff"
       transform="matrix(8,0,0,8,0,924.36218)"
       style="fill:#009100">
      <path
         style="fill:#009100"
         inkscape:connector-curvature="0"
         d="M 14.03,2.02 C 14.52,2.01 15.51,1.99 16,1.98 L 16,16 1.98,16 C 1.99,15.51 2.01,14.52 2.02,14.03 2.51,14.02 3.5,13.99 3.99,13.97 3.99,13.48 4,12.49 4,12 6.66,12 9.33,12 12,12 12,9.33 12,6.66 12,3.99 12.49,4 13.48,4 13.97,4 13.99,3.5 14.02,2.51 14.03,2.02 z"
         id="path16" />
    </g>
    <g
       id="#ffffffff"
       transform="matrix(8,0,0,8,0,924.36218)"
       style="fill:#ffffff">
      <path
         style="fill:#ffffff"
         inkscape:connector-curvature="0"
         d="M 4,4.01 C 6.67,4 9.33,4 12,3.99 12,6.66 12,9.33 12,12 9.33,12 6.66,12 4,12 4,9.33 4.01,6.67 4,4.01 z"
         id="path19" />
    </g>
  </g>
</svg>
