<?xml version="1.0" encoding="UTF-8" ?>
<!DOCTYPE svg PUBLIC "-//W3C//DTD SVG 1.1//EN" "http://www.w3.org/Graphics/SVG/1.1/DTD/svg11.dtd">
<svg width="120pt" height="160pt" viewBox="0 0 120 160" version="1.1" xmlns="http://www.w3.org/2000/svg">
<g id="#518af1ff">
<path fill="#518af1" opacity="1.00" d=" M 10.05 4.95 C 37.11 3.55 64.17 2.23 91.23 0.94 C 93.09 3.25 95.78 5.13 96.56 8.12 C 103.20 33.68 109.76 59.26 116.46 84.81 C 118.02 89.09 117.08 93.62 116.95 98.03 C 110.22 105.44 101.29 110.27 93.55 116.50 C 92.95 124.31 93.20 132.16 92.45 139.95 C 91.83 146.62 92.47 153.38 91.32 160.00 L 2.54 160.00 C 1.41 156.09 2.18 151.95 2.02 147.94 C 2.60 131.30 3.01 114.65 3.01 97.99 C 3.60 81.33 4.00 64.66 4.01 47.99 C 4.43 35.25 4.84 22.51 4.94 9.77 C 6.63 8.15 8.34 6.55 10.05 4.95 Z" />
</g>
</svg>
