<?xml version="1.0" encoding="UTF-8" ?>
<!DOCTYPE svg PUBLIC "-//W3C//DTD SVG 1.1//EN" "http://www.w3.org/Graphics/SVG/1.1/DTD/svg11.dtd">
<svg width="112pt" height="125pt" viewBox="0 0 112 125" version="1.1" xmlns="http://www.w3.org/2000/svg">
<g id="#e569f4ff">
<path fill="#e569f4" opacity="1.00" d=" M 84.57 0.00 L 89.75 0.00 C 91.44 0.72 93.12 1.51 94.78 2.31 C 99.76 23.59 105.40 44.72 110.52 65.97 C 109.56 67.61 108.66 69.29 107.50 70.79 C 104.78 73.11 101.17 74.07 98.39 76.31 C 96.47 79.25 93.58 82.14 93.99 85.94 C 93.21 98.96 92.79 111.98 92.05 125.00 L 0.77 125.00 C 1.04 115.01 0.83 105.00 1.40 95.02 C 2.07 80.38 1.73 65.73 2.48 51.10 C 3.10 37.58 2.69 24.04 3.47 10.52 C 5.83 8.38 8.16 6.22 10.46 4.01 C 19.34 4.10 28.16 2.84 37.04 2.81 C 52.87 1.62 68.75 1.37 84.57 0.00 Z" />
</g>
</svg>
