<?xml version="1.0" encoding="UTF-8" ?>
<!DOCTYPE svg PUBLIC "-//W3C//DTD SVG 1.1//EN" "http://www.w3.org/Graphics/SVG/1.1/DTD/svg11.dtd">
<svg width="117pt" height="160pt" viewBox="0 0 117 160" version="1.1" xmlns="http://www.w3.org/2000/svg">
<g id="#e569f4ff">
<path fill="#e569f4" opacity="1.00" d=" M 9.08 4.93 C 36.12 3.56 63.17 2.25 90.22 0.92 C 92.14 3.25 94.82 5.20 95.60 8.26 C 102.23 33.78 108.77 59.31 115.46 84.82 C 116.99 89.10 116.11 93.63 115.94 98.05 C 109.19 105.43 100.30 110.29 92.55 116.49 C 91.81 130.99 91.50 145.53 90.38 159.99 L 91.34 160.00 L 1.46 160.00 C 0.57 155.71 1.07 151.31 1.04 146.97 C 1.66 130.32 1.98 113.65 2.03 96.98 C 2.64 80.65 2.99 64.32 3.01 47.97 C 3.43 35.23 3.84 22.49 3.95 9.75 C 5.65 8.13 7.37 6.54 9.08 4.93 Z" />
</g>
</svg>
