<?xml version="1.0" encoding="UTF-8" ?>
<!DOCTYPE svg PUBLIC "-//W3C//DTD SVG 1.1//EN" "http://www.w3.org/Graphics/SVG/1.1/DTD/svg11.dtd">
<svg width="117pt" height="160pt" viewBox="0 0 117 160" version="1.1" xmlns="http://www.w3.org/2000/svg">
<g id="#d938c4ff">
<path fill="#d938c4" opacity="1.00" d=" M 9.05 4.94 C 36.11 3.55 63.17 2.24 90.24 0.93 C 92.14 3.24 94.78 5.18 95.58 8.19 C 102.35 34.25 109.04 60.32 115.86 86.36 C 116.91 90.19 116.02 94.15 115.94 98.03 C 109.21 105.44 100.29 110.28 92.55 116.50 C 91.97 124.30 92.19 132.14 91.45 139.94 C 90.85 146.62 91.43 153.36 90.34 160.00 L 1.50 160.00 C 0.47 155.74 1.13 151.33 1.04 147.00 C 1.64 130.65 1.99 114.29 2.02 97.93 C 2.60 81.30 3.00 64.66 3.02 48.01 C 3.42 35.27 3.85 22.53 3.93 9.78 C 5.63 8.16 7.34 6.55 9.05 4.94 Z" />
</g>
</svg>
