<?xml version="1.0" encoding="UTF-8" ?>
<!DOCTYPE svg PUBLIC "-//W3C//DTD SVG 1.1//EN" "http://www.w3.org/Graphics/SVG/1.1/DTD/svg11.dtd">
<svg width="112pt" height="125pt" viewBox="0 0 112 125" version="1.1" xmlns="http://www.w3.org/2000/svg">
<g id="#d938c4ff">
<path fill="#d938c4" opacity="1.00" d=" M 84.44 0.00 L 89.74 0.00 C 91.44 0.72 93.12 1.50 94.78 2.31 C 99.75 23.59 105.42 44.72 110.51 65.99 C 109.12 68.02 108.32 70.73 105.99 71.91 C 103.48 73.44 100.71 74.53 98.36 76.30 C 96.83 78.43 95.41 80.65 94.17 82.96 C 93.31 96.97 92.85 110.99 92.05 125.00 L 0.77 125.00 C 0.83 103.97 2.07 82.97 2.05 61.93 C 3.04 44.81 2.65 27.64 3.47 10.52 C 5.82 8.38 8.16 6.23 10.45 4.01 C 19.66 4.07 28.82 2.80 38.03 2.77 C 47.06 1.85 56.15 2.05 65.18 1.12 C 71.61 0.86 78.05 0.82 84.44 0.00 Z" />
</g>
</svg>
