<?xml version="1.0" encoding="UTF-8" ?>
<!DOCTYPE svg PUBLIC "-//W3C//DTD SVG 1.1//EN" "http://www.w3.org/Graphics/SVG/1.1/DTD/svg11.dtd">
<svg width="120pt" height="160pt" viewBox="0 0 120 160" version="1.1" xmlns="http://www.w3.org/2000/svg">
<g id="#dededeff">
<path fill="#dedede" opacity="1.00" d=" M 10.03 4.96 C 37.09 3.56 64.16 2.25 91.23 0.93 C 93.09 3.24 95.78 5.13 96.56 8.12 C 103.27 33.93 109.89 59.77 116.66 85.57 C 118.03 89.63 117.00 93.88 116.95 98.04 C 110.21 105.44 101.28 110.27 93.55 116.51 C 92.96 124.32 93.19 132.17 92.44 139.97 C 91.82 146.63 92.48 153.38 91.31 159.99 L 91.86 160.00 L 2.51 160.00 C 1.46 156.09 2.15 152.00 2.02 148.01 C 2.60 131.33 3.01 114.64 3.01 97.95 C 3.60 81.31 4.00 64.67 4.01 48.02 C 4.43 35.27 4.84 22.53 4.94 9.77 C 6.63 8.16 8.33 6.56 10.03 4.96 Z" />
</g>
</svg>
