<?xml version="1.0" encoding="UTF-8" ?>
<!DOCTYPE svg PUBLIC "-//W3C//DTD SVG 1.1//EN" "http://www.w3.org/Graphics/SVG/1.1/DTD/svg11.dtd">
<svg width="112pt" height="125pt" viewBox="0 0 112 125" version="1.1" xmlns="http://www.w3.org/2000/svg">
<g id="#dededeff">
<path fill="#dedede" opacity="1.00" d=" M 84.54 0.00 L 89.76 0.00 C 91.47 0.72 93.14 1.52 94.81 2.34 C 99.74 23.61 105.42 44.72 110.51 65.96 C 109.13 67.99 108.34 70.72 106.01 71.90 C 103.50 73.43 100.73 74.53 98.36 76.29 C 96.85 78.42 95.42 80.64 94.17 82.94 C 93.31 96.95 92.82 110.98 92.05 125.00 L 0.77 125.00 C 1.05 115.31 0.81 105.62 1.37 95.94 C 2.08 80.67 1.73 65.38 2.51 50.12 C 3.10 36.92 2.70 23.71 3.47 10.52 C 5.82 8.38 8.17 6.22 10.46 4.01 C 15.30 3.97 20.13 3.82 24.95 3.36 C 44.81 2.21 64.70 1.50 84.54 0.00 Z" />
</g>
</svg>
