<?xml version="1.0" encoding="UTF-8" standalone="no"?>
<!-- Created with Inkscape (http://www.inkscape.org/) -->

<svg
   xmlns:dc="http://purl.org/dc/elements/1.1/"
   xmlns:cc="http://creativecommons.org/ns#"
   xmlns:rdf="http://www.w3.org/1999/02/22-rdf-syntax-ns#"
   xmlns:svg="http://www.w3.org/2000/svg"
   xmlns="http://www.w3.org/2000/svg"
   xmlns:sodipodi="http://sodipodi.sourceforge.net/DTD/sodipodi-0.dtd"
   xmlns:inkscape="http://www.inkscape.org/namespaces/inkscape"
   width="219.87062"
   height="370.4346"
   id="svg3521"
   version="1.1"
   inkscape:version="0.48.3.1 r9886"
   sodipodi:docname="whip_3.svg"
   inkscape:export-filename="/home/iktwo/Desktop/meewhip/icons/symbian/whip_3.png"
   inkscape:export-xdpi="121.1553"
   inkscape:export-ydpi="121.1553">
  <defs
     id="defs3523">
    <marker
       inkscape:stockid="Legs"
       orient="auto"
       refY="0"
       refX="0"
       id="Legs"
       style="overflow:visible">
      <g
         id="g4004"
         transform="scale(-0.7,-0.7)">
        <g
           id="g4006"
           transform="matrix(0,-1,-1,0,20.70862,21.31391)">
          <path
             id="path4008"
             d="m 21.22125,20.67536 c -6.910151,4.721157 -2.454525,6.606844 -5.841071,13.443235"
             style="fill:none;stroke:#000000;stroke-width:1pt;marker-start:none;marker-end:none"
             inkscape:connector-curvature="0" />
          <path
             id="path4010"
             d="m 21.39811,20.54812 c -1.360509,8.347524 3.536072,8.76994 4.505041,13.824958"
             style="fill:none;stroke:#000000;stroke-width:1pt;marker-start:none;marker-end:none"
             inkscape:connector-curvature="0" />
        </g>
        <path
           id="path4012"
           d="m -14.09007,-6.7318716 -0.922168,4.043383 3.962751,-1.22307 -3.040583,-2.820313 z"
           style="fill:#030300;fill-rule:evenodd;stroke-width:1pt;marker-end:none"
           inkscape:connector-curvature="0" />
        <path
           id="path4014"
           d="m -15.215679,4.5567534 1.874127,3.699613 2.266874,-3.472855 -4.141001,-0.226758 z"
           style="fill:#030300;fill-rule:evenodd;stroke-width:1pt;marker-end:none"
           inkscape:connector-curvature="0" />
      </g>
    </marker>
    <marker
       inkscape:stockid="Tail"
       orient="auto"
       refY="0"
       refX="0"
       id="Tail"
       style="overflow:visible">
      <g
         id="g3840"
         transform="scale(-1.2,-1.2)">
        <path
           id="path3842"
           d="M -3.8048674,-3.9585227 0.54352094,0"
           style="fill:none;stroke:#000000;stroke-width:0.80000001;stroke-linecap:round;marker-start:none;marker-end:none"
           inkscape:connector-curvature="0" />
        <path
           id="path3844"
           d="M -1.2866832,-3.9585227 3.0617053,0"
           style="fill:none;stroke:#000000;stroke-width:0.80000001;stroke-linecap:round;marker-start:none;marker-end:none"
           inkscape:connector-curvature="0" />
        <path
           id="path3846"
           d="M 1.3053582,-3.9585227 5.6537466,0"
           style="fill:none;stroke:#000000;stroke-width:0.80000001;stroke-linecap:round;marker-start:none;marker-end:none"
           inkscape:connector-curvature="0" />
        <path
           id="path3848"
           d="M -3.8048674,4.1775838 0.54352094,0.21974226"
           style="fill:none;stroke:#000000;stroke-width:0.80000001;stroke-linecap:round;marker-start:none;marker-end:none"
           inkscape:connector-curvature="0" />
        <path
           id="path3850"
           d="M -1.2866832,4.1775838 3.0617053,0.21974226"
           style="fill:none;stroke:#000000;stroke-width:0.80000001;stroke-linecap:round;marker-start:none;marker-end:none"
           inkscape:connector-curvature="0" />
        <path
           id="path3852"
           d="M 1.3053582,4.1775838 5.6537466,0.21974226"
           style="fill:none;stroke:#000000;stroke-width:0.80000001;stroke-linecap:round;marker-start:none;marker-end:none"
           inkscape:connector-curvature="0" />
      </g>
    </marker>
    <marker
       inkscape:stockid="RazorWire"
       id="RazorWire"
       refX="0"
       refY="0"
       orient="auto">
       style=&quot;overflow:visible&quot;&gt;
      <path
   id="path4037"
   transform="scale(0.8,0.8)"
   style="fill:#808080;fill-opacity:1;fill-rule:evenodd;stroke:#000000;stroke-width:0.1pt"
   d="m 0.02272727,-0.74009011 0,1.4375 -7.78124997,2.31250001 18.4374997,0 -7.1874997,-2.31250001 0,-1.4375 7.2499997,-2.15624999 -18.4687497,0 7.74999997,2.15624999 z"
   inkscape:connector-curvature="0" />
</marker>
    <marker
       inkscape:stockid="Scissors"
       orient="auto"
       refY="0"
       refX="0"
       id="Scissors"
       style="overflow:visible">
      <path
         id="schere"
         style="marker-start:none"
         d="M 9.0898857,-3.6061018 C 8.1198849,-4.7769976 6.3697607,-4.7358294 5.0623558,-4.2327734 l -8.2124046,3.0779029 c -2.3882933,-1.3067135 -4.7482873,-0.9325372 -4.7482873,-1.5687873 0,-0.4973164 0.4566662,-0.3883222 0.3883068,-1.6831941 -0.065635,-1.2432767 -1.3635771,-2.1630796 -2.5903987,-2.0816435 -1.227271,-0.00735 -2.499439,0.9331613 -2.510341,2.2300611 -0.09143,1.3063864 1.007209,2.5196896 2.306764,2.6052316 1.5223406,0.2266616 4.218258,-0.6955566 5.482945,1.57086006 -0.9422847,1.73825774 -2.6140244,1.74307674 -4.1255107,1.65607034 -1.2548743,-0.072235 -2.7620933,0.2873979 -3.3606483,1.5208605 -0.578367,1.1820862 -0.0112,2.8646022 1.316749,3.226412 1.3401912,0.4918277 3.1806689,-0.129711 3.4993722,-1.6707242 0.2456585,-1.187823 -0.5953659,-1.7459574 -0.2725074,-2.1771537 0.2436135,-0.32536 1.7907806,-0.1368452 4.5471053,-1.3748244 L 5.6763468,4.2330688 C 6.8000164,4.5467672 8.1730685,4.5362646 9.1684433,3.4313614 L -0.05164093,-0.05372222 9.0898857,-3.6061018 z m -18.3078016,-1.900504 c 1.294559,0.7227998 1.1888392,2.6835702 -0.1564272,3.0632889 -1.2165179,0.423661 -2.7710269,-0.7589694 -2.3831779,-2.0774648 0.227148,-1.0818519 1.653387,-1.480632 2.5396051,-0.9858241 z m 0.056264,8.0173649 c 1.3508301,0.4988648 1.1214429,2.7844356 -0.2522207,3.091609 -0.9110594,0.3163391 -2.2135494,-0.1387976 -2.3056964,-1.2121394 -0.177609,-1.305055 1.356085,-2.4841482 2.5579171,-1.8794696 z"
         inkscape:connector-curvature="0" />
    </marker>
    <marker
       inkscape:stockid="EmptyTriangleInL"
       orient="auto"
       refY="0"
       refX="0"
       id="EmptyTriangleInL"
       style="overflow:visible">
      <path
         id="path3956"
         d="m 5.77,0 -8.65,5 0,-10 8.65,5 z"
         style="fill:#ffffff;fill-rule:evenodd;stroke:#000000;stroke-width:1pt;marker-start:none"
         transform="matrix(-0.8,0,0,-0.8,4.8,0)"
         inkscape:connector-curvature="0" />
    </marker>
  </defs>
  <sodipodi:namedview
     id="base"
     pagecolor="#ffffff"
     bordercolor="#666666"
     borderopacity="1.0"
     inkscape:pageopacity="0.0"
     inkscape:pageshadow="2"
     inkscape:zoom="2"
     inkscape:cx="168.31667"
     inkscape:cy="296.23143"
     inkscape:document-units="px"
     inkscape:current-layer="g4350"
     showgrid="false"
     fit-margin-top="0"
     fit-margin-left="0"
     fit-margin-right="0"
     fit-margin-bottom="0"
     inkscape:window-width="1181"
     inkscape:window-height="908"
     inkscape:window-x="361"
     inkscape:window-y="109"
     inkscape:window-maximized="0"
     inkscape:snap-midpoints="true"
     showguides="true"
     inkscape:guide-bbox="true" />
  <metadata
     id="metadata3526">
    <rdf:RDF>
      <cc:Work
         rdf:about="">
        <dc:format>image/svg+xml</dc:format>
        <dc:type
           rdf:resource="http://purl.org/dc/dcmitype/StillImage" />
        <dc:title></dc:title>
      </cc:Work>
    </rdf:RDF>
  </metadata>
  <g
     transform="translate(-197.21999,-204.30999)"
     id="g4350"
     inkscape:groupmode="layer"
     inkscape:label="Shadow">
    <g
       id="g4354" />
    <path
       sodipodi:nodetypes="cssssssc"
       inkscape:connector-curvature="0"
       id="path4352"
       d="m 288.48923,252.91319 c 34.98983,42.91644 11.96061,10.43572 34.98983,42.91644 19.56489,27.59459 23.81526,87.9986 -4.1047,100.26769 -36.0258,15.83109 -69.99299,-12.19634 -93.44434,-34.99457 -24.12248,-23.45067 -20.6896,-66.73709 -23.98628,-102.35581 -3.60477,-38.94751 54.78246,-43.76287 90.4799,-47.48045 38.51207,-4.01069 73.69314,117.43206 77.01579,158.65333 1.04181,12.92497 -0.93513,26.07669 -5.66411,38.02366"
       style="opacity:0.4;fill:none;stroke:#000000;stroke-width:1.5;stroke-linecap:round;stroke-linejoin:round;stroke-miterlimit:4;stroke-opacity:1;stroke-dashoffset:20;marker-start:url(#Tail);marker-mid:url(#RazorWire)" />
    <path
       sodipodi:nodetypes="sssssssss"
       inkscape:connector-curvature="0"
       id="path4356"
       d="m 363.74301,407.38971 13.85627,2.40012 c 0,0 5.18224,78.01933 14.88986,96.09014 l 19.14565,35.63974 c 2.57025,4.78456 5.89857,28.47934 0.65242,29.88505 l -11.13057,2.98243 c -5.24616,1.40571 -10.60127,-1.68606 -12.00698,-6.93222 L 349.76789,420.48021 c -1.40571,-5.24614 13.97512,-13.0905 13.97512,-13.0905 z"
       style="opacity:0.4;fill:#000000;fill-opacity:1;stroke:none" />
    <path
       style="opacity:0.07999998;fill:#000000;fill-opacity:1;stroke:none"
       d="m 357.83289,431.6708 c 6.06438,-2.00943 10.68296,-6.95592 16.24294,-13.27397 0.14425,-0.16387 0.34871,-0.0523 0.43743,0.16589 0.0888,0.2174 0.0215,0.4626 -0.11718,0.61918 -4.14012,4.6693 -6.38541,10.48822 -16.24296,13.27396 -0.17396,0.0482 -0.34871,0.0523 -0.43742,-0.16588 -0.0889,-0.21756 -0.0548,-0.56225 0.11717,-0.61918 z"
       id="path4358"
       inkscape:connector-curvature="0"
       sodipodi:nodetypes="sssssss" />
    <path
       sodipodi:nodetypes="sssssss"
       inkscape:connector-curvature="0"
       id="path4360"
       d="m 366.24259,468.52515 c 5.30208,-1.64601 9.34002,-5.69787 14.20091,-10.87304 0.12543,-0.13445 0.30486,-0.0425 0.38244,0.13631 0.0784,0.17804 0.0198,0.37889 -0.10224,0.50714 -3.61958,3.82473 -5.58259,8.59116 -14.20076,10.87308 -0.15219,0.0383 -0.30496,0.0425 -0.38236,-0.13632 -0.0784,-0.17814 -0.0487,-0.46055 0.10224,-0.50715 z"
       style="opacity:0.07999998;fill:#000000;fill-opacity:1;stroke:none" />
    <path
       sodipodi:nodetypes="sssssss"
       inkscape:connector-curvature="0"
       id="path4362"
       d="m 375.28185,501.94261 c 3.86061,-1.61767 6.80075,-5.59994 10.34013,-10.68631 0.0913,-0.13242 0.22198,-0.0419 0.27844,0.13352 0.0573,0.17505 0.0156,0.37246 -0.0744,0.49847 -2.63555,3.75905 -4.06489,8.44367 -10.34005,10.68639 -0.11173,0.0378 -0.22204,0.0419 -0.27842,-0.13414 -0.0573,-0.17515 -0.0356,-0.45258 0.0744,-0.49847 z"
       style="opacity:0.07999998;fill:#000000;fill-opacity:1;stroke:none" />
    <path
       sodipodi:nodetypes="sssssss"
       inkscape:connector-curvature="0"
       id="path4364"
       d="m 386.35898,537.65208 c 5.16575,-1.71161 9.09992,-5.92514 13.83611,-11.30697 0.12262,-0.13912 0.29704,-0.0428 0.37262,0.14114 0.0778,0.18507 0.0187,0.39392 -0.10131,0.52748 -3.52668,3.97729 -5.43924,8.93405 -13.83616,11.30696 -0.14861,0.0414 -0.29697,0.0426 -0.37274,-0.14114 -0.0778,-0.18509 -0.0459,-0.4789 0.10146,-0.52745 z"
       style="opacity:0.07999998;fill:#000000;fill-opacity:1;stroke:none" />
    <path
       id="path4366"
       d="m 363.73881,407.3666 c 0,0 -15.36222,7.88368 -13.95651,13.12982 l 3.06362,11.42781 c -0.0162,-0.15546 -0.0174,-0.32897 0.0485,-0.48629 0.0626,-0.14923 0.13352,-0.27523 0.24315,-0.3404 -0.0109,-0.0199 -0.0391,-0.0252 -0.0486,-0.0486 -0.12698,-0.3113 -0.10006,-0.79384 0.14581,-0.87532 8.67693,-2.87508 15.28941,-9.97407 23.24464,-19.01392 0.0517,-0.0587 0.136,-0.0842 0.19451,-0.0973 0.11469,-0.0257 0.20196,0.0405 0.29178,0.14581 0.22156,-0.3616 0.41253,-0.74433 0.63217,-1.11847 -0.006,-0.0797 0,-0.29177 0,-0.29177 l -13.85925,-2.43145 z m -10.79563,24.8494 36.22857,135.23714 c 1.40572,5.24615 6.71657,8.35965 11.96273,6.95394 l 11.13603,-3.015 c 2.03387,-0.54497 2.80819,-4.44924 2.82048,-9.28813 -0.42065,-0.10488 -0.8437,-0.22408 -1.26435,-0.3404 -0.005,0.014 0.006,0.0355 0,0.0485 -0.16699,0.39896 -0.49919,0.37969 -0.8267,0.29177 -18.55782,-5.09258 -22.79344,-15.72973 -30.58761,-24.26577 -0.23845,-0.26116 -0.34985,-0.65192 -0.24315,-1.02121 -0.006,-0.18757 0.0685,-0.34734 0.19452,-0.38903 0.11484,-0.12698 0.24963,-0.15725 0.38903,-0.14581 6.19626,-2.19888 11.01686,-7.32959 16.72836,-13.81062 -16.21751,-4.26066 -19.9652,-13.0386 -26.84318,-20.08376 -0.2323,-0.23772 -0.34297,-0.59385 -0.19452,-0.92395 0.0268,-0.0596 0.0582,-0.0988 0.0973,-0.14581 -0.006,-0.0167 0.003,-0.0276 0,-0.0486 -0.008,-0.0387 -6.2e-4,-0.10193 0,-0.14581 -0.14285,0.05 -0.26758,0.032 -0.3404,-0.19452 -0.0728,-0.22589 -0.0439,-0.57304 0.0973,-0.63217 4.77319,-2.00017 8.47117,-6.85894 12.78942,-13.03257 -13.17263,-4.03889 -16.23045,-12.42909 -21.78577,-19.15981 -0.18666,-0.22627 -0.26524,-0.5611 -0.14581,-0.87532 0.0156,-0.0394 0.0292,-0.0632 0.0485,-0.0973 -0.10379,-0.009 -0.18582,-0.0624 -0.24315,-0.19452 -0.0955,-0.21957 -0.0879,-0.52608 0.0973,-0.58355 6.3075,-1.95813 11.20435,-6.72626 16.92288,-12.78941 -0.10021,0.006 -0.18435,-0.0198 -0.29177,-0.0486 -16.14812,-4.43138 -19.86656,-13.67731 -26.64867,-21.10496 -0.0492,-0.0538 -0.0773,-0.1287 -0.0973,-0.19452 z"
       style="opacity:0.27999998;fill:#000000;fill-opacity:1;stroke:none"
       inkscape:connector-curvature="0" />
    <g
       style="opacity:0.4;fill:#000000"
       id="g4368"
       transform="translate(-1.9996223,1.9996966)">
      <path
         style="fill:#000000;fill-opacity:1;stroke:none"
         d="m 355.24797,428.15744 c 8.67693,-2.87509 15.28523,-9.95255 23.24046,-18.99241 0.20634,-0.23447 0.49894,-0.0749 0.62587,0.23736 0.12698,0.31105 0.0308,0.6619 -0.16772,0.8859 -5.92367,6.68086 -9.13625,15.00659 -23.24044,18.99242 -0.2489,0.0689 -0.49895,0.0749 -0.62587,-0.23734 -0.12698,-0.3113 -0.0783,-0.80446 0.1677,-0.88593 z"
         id="path4370"
         inkscape:connector-curvature="0"
         sodipodi:nodetypes="sssssss" />
      <path
         sodipodi:nodetypes="sssssss"
         inkscape:connector-curvature="0"
         id="path4372"
         d="m 382.1971,450.26972 c -9.93436,-3.19647 -17.50031,-11.06508 -26.60838,-21.11541 -0.23625,-0.26069 -0.57126,-0.0833 -0.71658,0.26388 -0.14535,0.34582 -0.0353,0.7359 0.19202,0.98494 6.78212,7.42766 10.46025,16.68404 26.60837,21.11542 0.28497,0.0766 0.57127,0.0833 0.71658,-0.26387 0.14534,-0.3461 0.0896,-0.89437 -0.19201,-0.98496 z"
         style="fill:#000000;fill-opacity:1;stroke:none" />
      <path
         sodipodi:nodetypes="sssssss"
         inkscape:connector-curvature="0"
         id="path4374"
         d="m 365.07515,464.33438 c 6.53188,-2.02781 11.50654,-7.01955 17.49515,-13.39537 0.15531,-0.16539 0.37561,-0.0528 0.47115,0.1674 0.0956,0.21939 0.0232,0.46684 -0.1262,0.62484 -4.45928,4.71201 -6.87767,10.58416 -17.49516,13.39537 -0.18737,0.0485 -0.3756,0.0528 -0.47115,-0.16739 -0.0955,-0.21957 -0.059,-0.56738 0.12621,-0.62485 z"
         style="fill:#000000;fill-opacity:1;stroke:none" />
      <path
         style="fill:#000000;fill-opacity:1;stroke:none"
         d="m 387.59988,484.16287 c -8.15915,-2.90429 -14.37312,-10.05368 -21.85365,-19.18539 -0.19404,-0.23686 -0.46918,-0.0756 -0.58853,0.23977 -0.11936,0.31421 -0.0289,0.66863 0.15771,0.89491 5.5702,6.74875 8.59108,15.15907 21.85364,19.18541 0.23406,0.0696 0.46919,0.0756 0.58854,-0.23975 0.11936,-0.31447 0.0736,-0.81263 -0.15771,-0.89495 z"
         id="path4376"
         inkscape:connector-curvature="0"
         sodipodi:nodetypes="sssssss" />
      <path
         sodipodi:nodetypes="sssssss"
         inkscape:connector-curvature="0"
         id="path4378"
         d="m 374.30053,498.2918 c 4.9786,-2.08623 8.77027,-7.22181 13.33478,-13.78137 0.11842,-0.17014 0.28628,-0.0543 0.35911,0.17223 0.0728,0.22572 0.0177,0.4803 -0.0962,0.64284 -3.39886,4.8478 -5.24216,10.88917 -13.33478,13.78139 -0.14285,0.0499 -0.28628,0.0543 -0.3591,-0.17222 -0.0728,-0.22589 -0.045,-0.58374 0.0962,-0.64287 z"
         style="fill:#000000;fill-opacity:1;stroke:none" />
      <path
         sodipodi:nodetypes="sssssss"
         inkscape:connector-curvature="0"
         id="path4380"
         d="m 402.32235,519.36895 c -10.13876,-3.05109 -17.86039,-10.56187 -27.15589,-20.15519 -0.24106,-0.24887 -0.58296,-0.079 -0.73134,0.25184 -0.14845,0.33011 -0.0362,0.70246 0.19604,0.94017 6.92164,7.08988 10.67548,15.92534 27.15585,20.1552 0.29084,0.0734 0.58298,0.0791 0.73133,-0.2518 0.14845,-0.33036 0.092,-0.85376 -0.19599,-0.94022 z"
         style="fill:#000000;fill-opacity:1;stroke:none" />
      <path
         sodipodi:nodetypes="sssssss"
         inkscape:connector-curvature="0"
         id="path4382"
         d="m 384.35059,534.41787 c 6.47875,-2.14666 11.4129,-7.43115 17.35285,-14.18087 0.15406,-0.17502 0.37257,-0.0543 0.46734,0.17727 0.0962,0.23218 0.023,0.49411 -0.1262,0.66155 -4.42303,4.98821 -6.82174,11.20484 -17.35285,14.18084 -0.18607,0.0524 -0.37248,0.0543 -0.46751,-0.17728 -0.0962,-0.23222 -0.0577,-0.60061 0.12636,-0.66151 z"
         style="fill:#000000;fill-opacity:1;stroke:none" />
      <path
         style="fill:#000000;fill-opacity:1;stroke:none"
         d="m 415.60658,558.66782 c -11.41682,-3.67347 -20.11179,-12.71626 -30.57903,-24.26636 -0.27151,-0.2996 -0.65648,-0.0957 -0.8235,0.30326 -0.1671,0.39741 -0.0406,0.84572 0.22069,1.13192 7.79417,8.53604 12.02117,19.17371 30.579,24.26637 0.3275,0.0879 0.65651,0.0957 0.8235,-0.30326 0.16711,-0.39773 0.10301,-1.02782 -0.22066,-1.13193 z"
         id="path4384"
         inkscape:connector-curvature="0"
         sodipodi:nodetypes="sssssss" />
    </g>
  </g>
  <g
     inkscape:label="Layer 1"
     inkscape:groupmode="layer"
     id="layer1"
     transform="translate(-197.21999,-204.30999)"
     sodipodi:insensitive="true"
     style="display:inline">
    <path
       transform="matrix(0.86555435,-0.54475692,0.50091942,0.93295468,86.644923,257.67749)"
       style="fill:none;stroke:#000000;stroke-width:1.44310689;stroke-linecap:round;stroke-linejoin:round;stroke-miterlimit:4;stroke-opacity:1;stroke-dashoffset:20;marker-start:url(#Tail);marker-mid:url(#RazorWire)"
       d="m 179.16045,97.362605 c 10.31676,52.024565 5.48986,14.391215 10.31676,52.024565 4.10078,31.9721 -20.23473,82.50732 -50.03278,78.25888 -38.44914,-5.48188 -54.785985,-45.06262 -64.466609,-75.15178 -9.957665,-30.95024 13.07609,-63.897846 26.743649,-94.095696 14.94487,-33.020028 67.59632,-7.437992 100.14559,7.582958 35.11566,16.2053 9.1895,131.236928 -7.0532,165.936298 -5.09292,10.88002 -12.89775,20.41959 -22.52045,27.60637"
       id="path3031"
       inkscape:connector-curvature="0"
       sodipodi:nodetypes="cssssssc" />
    <g
       id="g3841" />
    <path
       style="fill:#d40000;fill-opacity:1;stroke:none"
       d="m 365.74263,405.39001 13.85627,2.40012 c 0,0 5.18224,78.01933 14.88986,96.09014 l 19.14565,35.63974 c 2.57025,4.78456 5.89857,28.47934 0.65242,29.88505 l -11.13057,2.98243 c -5.24616,1.40571 -10.60127,-1.68606 -12.00698,-6.93222 L 351.76751,418.48051 c -1.40571,-5.24614 13.97512,-13.0905 13.97512,-13.0905 z"
       id="rect3013"
       inkscape:connector-curvature="0"
       sodipodi:nodetypes="sssssssss" />
    <path
       sodipodi:nodetypes="sssssss"
       inkscape:connector-curvature="0"
       id="path3865"
       d="m 359.83251,429.6711 c 6.06438,-2.00943 10.68296,-6.95592 16.24294,-13.27397 0.14425,-0.16387 0.34871,-0.0523 0.43743,0.16589 0.0888,0.2174 0.0215,0.4626 -0.11718,0.61918 -4.14012,4.6693 -6.38541,10.48822 -16.24296,13.27396 -0.17396,0.0482 -0.34871,0.0523 -0.43742,-0.16588 -0.0889,-0.21756 -0.0548,-0.56225 0.11717,-0.61918 z"
       style="opacity:0.2;fill:#ffffff;fill-opacity:1;stroke:none" />
    <path
       style="opacity:0.2;fill:#ffffff;fill-opacity:1;stroke:none"
       d="m 368.24221,466.52545 c 5.30208,-1.64601 9.34002,-5.69787 14.20091,-10.87304 0.12543,-0.13445 0.30486,-0.0425 0.38244,0.13631 0.0784,0.17804 0.0198,0.37889 -0.10224,0.50714 -3.61958,3.82473 -5.58259,8.59116 -14.20076,10.87308 -0.15219,0.0383 -0.30496,0.0425 -0.38236,-0.13632 -0.0784,-0.17814 -0.0487,-0.46055 0.10224,-0.50715 z"
       id="path3867"
       inkscape:connector-curvature="0"
       sodipodi:nodetypes="sssssss" />
    <path
       style="opacity:0.2;fill:#ffffff;fill-opacity:1;stroke:none"
       d="m 377.28147,499.94291 c 3.86061,-1.61767 6.80075,-5.59994 10.34013,-10.68631 0.0913,-0.13242 0.22198,-0.0419 0.27844,0.13352 0.0573,0.17505 0.0156,0.37246 -0.0744,0.49847 -2.63555,3.75905 -4.06489,8.44367 -10.34005,10.68639 -0.11173,0.0378 -0.22204,0.0419 -0.27842,-0.13414 -0.0573,-0.17515 -0.0356,-0.45258 0.0744,-0.49847 z"
       id="path3869"
       inkscape:connector-curvature="0"
       sodipodi:nodetypes="sssssss" />
    <path
       style="opacity:0.2;fill:#ffffff;fill-opacity:1;stroke:none"
       d="m 388.3586,535.65238 c 5.16575,-1.71161 9.09992,-5.92514 13.83611,-11.30697 0.12262,-0.13912 0.29704,-0.0428 0.37262,0.14114 0.0778,0.18507 0.0187,0.39392 -0.10131,0.52748 -3.52668,3.97729 -5.43924,8.93405 -13.83616,11.30696 -0.14861,0.0414 -0.29697,0.0426 -0.37274,-0.14114 -0.0778,-0.18509 -0.0459,-0.4789 0.10146,-0.52745 z"
       id="path3871"
       inkscape:connector-curvature="0"
       sodipodi:nodetypes="sssssss" />
    <path
       inkscape:connector-curvature="0"
       style="opacity:0.7;fill:#800000;fill-opacity:1;stroke:none"
       d="m 365.73843,405.3669 c 0,0 -15.36222,7.88368 -13.95651,13.12982 l 3.06362,11.42781 c -0.0162,-0.15546 -0.0174,-0.32897 0.0485,-0.48629 0.0626,-0.14923 0.13352,-0.27523 0.24315,-0.3404 -0.0109,-0.0199 -0.0391,-0.0252 -0.0486,-0.0486 -0.12698,-0.3113 -0.10006,-0.79384 0.14581,-0.87532 8.67693,-2.87508 15.28941,-9.97407 23.24464,-19.01392 0.0517,-0.0587 0.136,-0.0842 0.19451,-0.0973 0.11469,-0.0257 0.20196,0.0405 0.29178,0.14581 0.22156,-0.3616 0.41253,-0.74433 0.63217,-1.11847 -0.006,-0.0797 0,-0.29177 0,-0.29177 l -13.85925,-2.43145 z m -10.79563,24.8494 36.22857,135.23714 c 1.40572,5.24615 6.71657,8.35965 11.96273,6.95394 l 11.13603,-3.015 c 2.03387,-0.54497 2.80819,-4.44924 2.82048,-9.28813 -0.42065,-0.10488 -0.8437,-0.22408 -1.26435,-0.3404 -0.005,0.014 0.006,0.0355 0,0.0485 -0.16699,0.39896 -0.49919,0.37969 -0.8267,0.29177 -18.55782,-5.09258 -22.79344,-15.72973 -30.58761,-24.26577 -0.23845,-0.26116 -0.34985,-0.65192 -0.24315,-1.02121 -0.006,-0.18757 0.0685,-0.34734 0.19452,-0.38903 0.11484,-0.12698 0.24963,-0.15725 0.38903,-0.14581 6.19626,-2.19888 11.01686,-7.32959 16.72836,-13.81062 -16.21751,-4.26066 -19.9652,-13.0386 -26.84318,-20.08376 -0.2323,-0.23772 -0.34297,-0.59385 -0.19452,-0.92395 0.0268,-0.0596 0.0582,-0.0988 0.0973,-0.14581 -0.006,-0.0167 0.003,-0.0276 0,-0.0486 -0.008,-0.0387 -6.2e-4,-0.10193 0,-0.14581 -0.14285,0.05 -0.26758,0.032 -0.3404,-0.19452 -0.0728,-0.22589 -0.0439,-0.57304 0.0973,-0.63217 4.77319,-2.00017 8.47117,-6.85894 12.78942,-13.03257 -13.17263,-4.03889 -16.23045,-12.42909 -21.78577,-19.15981 -0.18666,-0.22627 -0.26524,-0.5611 -0.14581,-0.87532 0.0156,-0.0394 0.0292,-0.0632 0.0485,-0.0973 -0.10379,-0.009 -0.18582,-0.0624 -0.24315,-0.19452 -0.0955,-0.21957 -0.0879,-0.52608 0.0973,-0.58355 6.3075,-1.95813 11.20435,-6.72626 16.92288,-12.78941 -0.10021,0.006 -0.18435,-0.0198 -0.29177,-0.0486 -16.14812,-4.43138 -19.86656,-13.67731 -26.64867,-21.10496 -0.0492,-0.0538 -0.0773,-0.1287 -0.0973,-0.19452 z"
       id="path3873" />
    <g
       id="g3021"
       style="fill:#ff6600">
      <path
         sodipodi:nodetypes="sssssss"
         inkscape:connector-curvature="0"
         id="rect3786"
         d="m 355.24797,428.15744 c 8.67693,-2.87509 15.28523,-9.95255 23.24046,-18.99241 0.20634,-0.23447 0.49894,-0.0749 0.62587,0.23736 0.12698,0.31105 0.0308,0.6619 -0.16772,0.8859 -5.92367,6.68086 -9.13625,15.00659 -23.24044,18.99242 -0.2489,0.0689 -0.49895,0.0749 -0.62587,-0.23734 -0.12698,-0.3113 -0.0783,-0.80446 0.1677,-0.88593 z"
         style="fill:#ff6600;fill-opacity:1;stroke:none" />
      <path
         style="fill:#ff6600;fill-opacity:1;stroke:none"
         d="m 382.1971,450.26972 c -9.93436,-3.19647 -17.50031,-11.06508 -26.60838,-21.11541 -0.23625,-0.26069 -0.57126,-0.0833 -0.71658,0.26388 -0.14535,0.34582 -0.0353,0.7359 0.19202,0.98494 6.78212,7.42766 10.46025,16.68404 26.60837,21.11542 0.28497,0.0766 0.57127,0.0833 0.71658,-0.26387 0.14534,-0.3461 0.0896,-0.89437 -0.19201,-0.98496 z"
         id="path3789"
         inkscape:connector-curvature="0"
         sodipodi:nodetypes="sssssss" />
      <path
         style="fill:#ff6600;fill-opacity:1;stroke:none"
         d="m 365.07515,464.33438 c 6.53188,-2.02781 11.50654,-7.01955 17.49515,-13.39537 0.15531,-0.16539 0.37561,-0.0528 0.47115,0.1674 0.0956,0.21939 0.0232,0.46684 -0.1262,0.62484 -4.45928,4.71201 -6.87767,10.58416 -17.49516,13.39537 -0.18737,0.0485 -0.3756,0.0528 -0.47115,-0.16739 -0.0955,-0.21957 -0.059,-0.56738 0.12621,-0.62485 z"
         id="path3791"
         inkscape:connector-curvature="0"
         sodipodi:nodetypes="sssssss" />
      <path
         sodipodi:nodetypes="sssssss"
         inkscape:connector-curvature="0"
         id="path3793"
         d="m 387.59988,484.16287 c -8.15915,-2.90429 -14.37312,-10.05368 -21.85365,-19.18539 -0.19404,-0.23686 -0.46918,-0.0756 -0.58853,0.23977 -0.11936,0.31421 -0.0289,0.66863 0.15771,0.89491 5.5702,6.74875 8.59108,15.15907 21.85364,19.18541 0.23406,0.0696 0.46919,0.0756 0.58854,-0.23975 0.11936,-0.31447 0.0736,-0.81263 -0.15771,-0.89495 z"
         style="fill:#ff6600;fill-opacity:1;stroke:none" />
      <path
         style="fill:#ff6600;fill-opacity:1;stroke:none"
         d="m 374.30053,498.2918 c 4.9786,-2.08623 8.77027,-7.22181 13.33478,-13.78137 0.11842,-0.17014 0.28628,-0.0543 0.35911,0.17223 0.0728,0.22572 0.0177,0.4803 -0.0962,0.64284 -3.39886,4.8478 -5.24216,10.88917 -13.33478,13.78139 -0.14285,0.0499 -0.28628,0.0543 -0.3591,-0.17222 -0.0728,-0.22589 -0.045,-0.58374 0.0962,-0.64287 z"
         id="path3795"
         inkscape:connector-curvature="0"
         sodipodi:nodetypes="sssssss" />
      <path
         style="fill:#ff6600;fill-opacity:1;stroke:none"
         d="m 402.32235,519.36895 c -10.13876,-3.05109 -17.86039,-10.56187 -27.15589,-20.15519 -0.24106,-0.24887 -0.58296,-0.079 -0.73134,0.25184 -0.14845,0.33011 -0.0362,0.70246 0.19604,0.94017 6.92164,7.08988 10.67548,15.92534 27.15585,20.1552 0.29084,0.0734 0.58298,0.0791 0.73133,-0.2518 0.14845,-0.33036 0.092,-0.85376 -0.19599,-0.94022 z"
         id="path3797"
         inkscape:connector-curvature="0"
         sodipodi:nodetypes="sssssss" />
      <path
         style="fill:#ff6600;fill-opacity:1;stroke:none"
         d="m 384.35059,534.41787 c 6.47875,-2.14666 11.4129,-7.43115 17.35285,-14.18087 0.15406,-0.17502 0.37257,-0.0543 0.46734,0.17727 0.0962,0.23218 0.023,0.49411 -0.1262,0.66155 -4.42303,4.98821 -6.82174,11.20484 -17.35285,14.18084 -0.18607,0.0524 -0.37248,0.0543 -0.46751,-0.17728 -0.0962,-0.23222 -0.0577,-0.60061 0.12636,-0.66151 z"
         id="path3799"
         inkscape:connector-curvature="0"
         sodipodi:nodetypes="sssssss" />
      <path
         sodipodi:nodetypes="sssssss"
         inkscape:connector-curvature="0"
         id="path3801"
         d="m 415.60658,558.66782 c -11.41682,-3.67347 -20.11179,-12.71626 -30.57903,-24.26636 -0.27151,-0.2996 -0.65648,-0.0957 -0.8235,0.30326 -0.1671,0.39741 -0.0406,0.84572 0.22069,1.13192 7.79417,8.53604 12.02117,19.17371 30.579,24.26637 0.3275,0.0879 0.65651,0.0957 0.8235,-0.30326 0.16711,-0.39773 0.10301,-1.02782 -0.22066,-1.13193 z"
         style="fill:#ff6600;fill-opacity:1;stroke:none" />
    </g>
  </g>
</svg>
