<?xml version="1.0" encoding="UTF-8" standalone="no"?>
<!-- Created with Inkscape (http://www.inkscape.org/) -->

<svg
   xmlns:dc="http://purl.org/dc/elements/1.1/"
   xmlns:cc="http://creativecommons.org/ns#"
   xmlns:rdf="http://www.w3.org/1999/02/22-rdf-syntax-ns#"
   xmlns:svg="http://www.w3.org/2000/svg"
   xmlns="http://www.w3.org/2000/svg"
   xmlns:sodipodi="http://sodipodi.sourceforge.net/DTD/sodipodi-0.dtd"
   xmlns:inkscape="http://www.inkscape.org/namespaces/inkscape"
   width="249.6857"
   height="389.89084"
   id="svg3521"
   version="1.1"
   inkscape:version="0.48.3.1 r9886"
   sodipodi:docname="whip_2.svg"
   inkscape:export-filename="/home/iktwo/Desktop/meewhip/icons/symbian/whip_2.png"
   inkscape:export-xdpi="114.98456"
   inkscape:export-ydpi="114.98456">
  <defs
     id="defs3523" />
  <sodipodi:namedview
     id="base"
     pagecolor="#ffffff"
     bordercolor="#666666"
     borderopacity="1.0"
     inkscape:pageopacity="0.0"
     inkscape:pageshadow="2"
     inkscape:zoom="1.6263456"
     inkscape:cx="-3046.6264"
     inkscape:cy="199.94704"
     inkscape:document-units="px"
     inkscape:current-layer="layer1"
     showgrid="false"
     fit-margin-top="0"
     fit-margin-left="0"
     fit-margin-right="0"
     fit-margin-bottom="0"
     inkscape:window-width="1181"
     inkscape:window-height="908"
     inkscape:window-x="331"
     inkscape:window-y="68"
     inkscape:window-maximized="0"
     inkscape:snap-midpoints="true"
     showguides="true"
     inkscape:guide-bbox="true" />
  <metadata
     id="metadata3526">
    <rdf:RDF>
      <cc:Work
         rdf:about="">
        <dc:format>image/svg+xml</dc:format>
        <dc:type
           rdf:resource="http://purl.org/dc/dcmitype/StillImage" />
        <dc:title></dc:title>
      </cc:Work>
    </rdf:RDF>
  </metadata>
  <g
     inkscape:label="Shadow"
     inkscape:groupmode="layer"
     id="layer1"
     transform="translate(-167.40501,-184.85376)"
     style="display:inline">
    <g
       id="g3841" />
    <g
       id="g4332"
       style="opacity:0.4;fill:#000000"
       transform="translate(-3.3755,1.9996979)">
      <path
         sodipodi:nodetypes="scccccccccccccscccas"
         inkscape:connector-curvature="0"
         id="rect4198"
         transform="translate(170.09301,172.76791)"
         d="M 120.78125,12.125 C 93.398549,12.191311 71.32529,26.453233 53.1875,49.28125 34.901145,63.487439 17.302085,83.21221 0.6875,105.125 15.913277,87.289076 31.682679,69.858339 48.03125,56.1875 31.557401,79.339824 18.482055,109.66729 7.65625,142.40625 20.178283,110.80139 33.824103,79.539826 51.28125,55.9375 47.827028,81.719651 39.431072,109.52322 30.1875,137.03125 c 11.823445,-29.42623 20.881156,-58.488184 24.09375,-85 20.517128,-26.040919 46.23989,-41.499158 81.21875,-35.375 0.63066,0.167912 1.3006,0.44825 2.1875,1.09375 64.19701,57.62796 49.03049,142.2639 57.28125,218.9375 0.0316,0.29337 0.37124,0.45137 0.65625,0.375 l 3.09375,-0.8125 c 0.28501,-0.0764 0.39517,-0.36189 0.375,-0.65625 -5.4927,-80.33293 4.39998,-168.031682 -59.09375,-220.625 -0.0852,-0.07058 -0.14429,-0.148973 -0.21875,-0.21875 -0.0176,-0.01646 -0.0448,-0.01633 -0.0625,-0.03125 C 138.73787,14.154714 138.02404,14.0535 137.25,13.875 137.14282,13.85028 137.09713,13.725146 137,13.6875 131.93582,11.72462 125.99356,12.112377 120.78125,12.125 z"
         style="fill:#000000;fill-opacity:1;stroke:none" />
      <g
         transform="matrix(1.5561267,0,0,1.5561267,-102.31406,-294.57758)"
         id="g4166"
         style="fill:#000000">
        <path
           style="fill:#000000;fill-opacity:1;stroke:none"
           d="m 300.78315,449.81401 8.90433,1.54237 c 0,0 3.33022,50.13687 9.56854,61.74956 l 12.3034,22.90285 c 1.6517,3.07466 3.79055,18.30143 0.41926,19.20477 l -7.15274,1.91657 c -3.37129,0.90334 -6.8126,-1.0835 -7.71594,-4.45479 l -25.30756,-94.4491 c -0.90334,-3.37128 8.98071,-8.41223 8.98071,-8.41223 z"
           id="rect3013"
           inkscape:connector-curvature="0"
           sodipodi:nodetypes="sssssssss" />
        <path
           style="fill:#000000;fill-opacity:1;stroke:none"
           d="m 294.03906,464.44484 c 5.57598,-1.84759 9.82261,-6.39572 14.93481,-12.20492 0.1326,-0.15068 0.32063,-0.0481 0.4022,0.15253 0.0816,0.19989 0.0198,0.42535 -0.10778,0.5693 -3.80668,4.29326 -5.87115,9.64355 -14.9348,12.20493 -0.15995,0.0443 -0.32064,0.0481 -0.4022,-0.15252 -0.0816,-0.20005 -0.0503,-0.51696 0.10777,-0.56932 z"
           id="rect3786"
           inkscape:connector-curvature="0"
           sodipodi:nodetypes="sssssss" />
        <path
           sodipodi:nodetypes="sssssss"
           inkscape:connector-curvature="0"
           id="path3789"
           d="m 311.35714,478.65466 c -6.38403,-2.05412 -11.24607,-7.11065 -17.09911,-13.56921 -0.15182,-0.16752 -0.3671,-0.0535 -0.46049,0.16958 -0.0934,0.22223 -0.0227,0.4729 0.1234,0.63294 4.35833,4.77317 6.72198,10.72152 17.0991,13.56922 0.18313,0.0492 0.36711,0.0535 0.46049,-0.16957 0.0934,-0.22241 0.0576,-0.57474 -0.12339,-0.63296 z"
           style="fill:#000000;fill-opacity:1;stroke:none" />
        <path
           sodipodi:nodetypes="sssssss"
           inkscape:connector-curvature="0"
           id="path3791"
           d="m 300.35421,487.69291 c 4.19753,-1.30311 7.39435,-4.51091 11.24276,-8.60815 0.0998,-0.10628 0.24137,-0.0339 0.30277,0.10758 0.0614,0.14098 0.0149,0.3 -0.0811,0.40153 -2.86563,3.02804 -4.41974,6.80161 -11.24276,8.60815 -0.12041,0.0312 -0.24137,0.0339 -0.30277,-0.10757 -0.0614,-0.1411 -0.0379,-0.36461 0.0811,-0.40154 z"
           style="fill:#000000;fill-opacity:1;stroke:none" />
        <path
           style="fill:#000000;fill-opacity:1;stroke:none"
           d="m 314.82908,500.43512 c -5.24324,-1.86636 -9.23647,-6.46071 -14.04362,-12.32894 -0.12469,-0.15221 -0.3015,-0.0486 -0.3782,0.15408 -0.0767,0.20192 -0.0186,0.42968 0.10135,0.57509 3.57953,4.33689 5.52081,9.74154 14.04361,12.32895 0.15041,0.0447 0.30151,0.0486 0.37821,-0.15407 0.0767,-0.20208 0.0473,-0.52221 -0.10135,-0.57511 z"
           id="path3793"
           inkscape:connector-curvature="0"
           sodipodi:nodetypes="sssssss" />
        <path
           sodipodi:nodetypes="sssssss"
           inkscape:connector-curvature="0"
           id="path3795"
           d="m 306.28264,509.51467 c 3.19935,-1.34066 5.63596,-4.64089 8.56921,-8.8562 0.0761,-0.10934 0.18397,-0.0349 0.23077,0.11068 0.0468,0.14505 0.0114,0.30865 -0.0618,0.4131 -2.18418,3.1153 -3.36872,6.99761 -8.56921,8.85621 -0.0918,0.0321 -0.18397,0.0349 -0.23077,-0.11067 -0.0468,-0.14516 -0.0289,-0.37512 0.0618,-0.41312 z"
           style="fill:#000000;fill-opacity:1;stroke:none" />
        <path
           sodipodi:nodetypes="sssssss"
           inkscape:connector-curvature="0"
           id="path3797"
           d="m 324.29005,523.05929 c -6.51538,-1.96069 -11.47746,-6.78728 -17.45095,-12.95215 -0.15491,-0.15993 -0.37462,-0.0508 -0.46997,0.16184 -0.0954,0.21213 -0.0233,0.45141 0.12598,0.60417 4.44799,4.55611 6.86029,10.23396 17.45092,12.95216 0.1869,0.0472 0.37464,0.0508 0.46997,-0.16181 0.0954,-0.2123 0.0591,-0.54865 -0.12595,-0.60421 z"
           style="fill:#000000;fill-opacity:1;stroke:none" />
        <path
           sodipodi:nodetypes="sssssss"
           inkscape:connector-curvature="0"
           id="path3799"
           d="m 312.74102,532.73005 c 4.16338,-1.37949 7.33417,-4.77542 11.15131,-9.11293 0.099,-0.11247 0.23942,-0.0349 0.30032,0.11392 0.0618,0.1492 0.0148,0.31752 -0.0811,0.42512 -2.84233,3.20553 -4.38379,7.20047 -11.15131,9.11291 -0.11957,0.0337 -0.23936,0.0349 -0.30043,-0.11392 -0.0618,-0.14923 -0.0371,-0.38597 0.0812,-0.4251 z"
           style="fill:#000000;fill-opacity:1;stroke:none" />
        <path
           style="fill:#000000;fill-opacity:1;stroke:none"
           d="m 332.82678,548.31358 c -7.33669,-2.36065 -12.92426,-8.17174 -19.65073,-15.59408 -0.17448,-0.19253 -0.42187,-0.0615 -0.5292,0.19488 -0.10738,0.25539 -0.0261,0.54348 0.14182,0.7274 5.0087,5.48544 7.72506,12.32143 19.65071,15.59408 0.21046,0.0565 0.42189,0.0615 0.5292,-0.19488 0.10739,-0.25559 0.0662,-0.6605 -0.1418,-0.7274 z"
           id="path3801"
           inkscape:connector-curvature="0"
           sodipodi:nodetypes="sssssss" />
        <path
           sodipodi:nodetypes="sssssss"
           inkscape:connector-curvature="0"
           id="path3865"
           d="m 296.98518,465.41755 c 3.8971,-1.2913 6.8651,-4.47002 10.43806,-8.53013 0.0927,-0.10531 0.22409,-0.0336 0.2811,0.1066 0.0571,0.13971 0.0138,0.29728 -0.0753,0.3979 -2.66053,3.00059 -4.1034,6.73995 -10.43807,8.53013 -0.11179,0.031 -0.22409,0.0336 -0.2811,-0.1066 -0.0571,-0.13981 -0.0352,-0.36131 0.0753,-0.3979 z"
           style="opacity:0.2;fill:#000000;fill-opacity:1;stroke:none" />
        <path
           style="opacity:0.2;fill:#000000;fill-opacity:1;stroke:none"
           d="m 302.38943,489.10094 c 3.40723,-1.05776 6.0021,-3.66157 9.12581,-6.98725 0.0806,-0.0864 0.19591,-0.0273 0.24576,0.0876 0.0504,0.11441 0.0127,0.24348 -0.0657,0.3259 -2.32602,2.45785 -3.58749,5.52086 -9.12571,6.98727 -0.0978,0.0246 -0.19597,0.0273 -0.24571,-0.0876 -0.0504,-0.11448 -0.0313,-0.29596 0.0657,-0.32591 z"
           id="path3867"
           inkscape:connector-curvature="0"
           sodipodi:nodetypes="sssssss" />
        <path
           style="opacity:0.2;fill:#000000;fill-opacity:1;stroke:none"
           d="m 308.19825,510.57571 c 2.48091,-1.03955 4.37031,-3.59864 6.64479,-6.86725 0.0587,-0.0851 0.14265,-0.0269 0.17893,0.0858 0.0368,0.11249 0.01,0.23935 -0.0478,0.32033 -1.69366,2.41564 -2.61218,5.42608 -6.64473,6.8673 -0.0718,0.0243 -0.14269,0.0269 -0.17892,-0.0862 -0.0368,-0.11256 -0.0229,-0.29084 0.0478,-0.32033 z"
           id="path3869"
           inkscape:connector-curvature="0"
           sodipodi:nodetypes="sssssss" />
        <path
           style="opacity:0.2;fill:#000000;fill-opacity:1;stroke:none"
           d="m 315.31665,533.52337 c 3.31962,-1.09992 5.8478,-3.80762 8.89138,-7.2661 0.0788,-0.0894 0.19088,-0.0275 0.23945,0.0907 0.05,0.11893 0.012,0.25314 -0.0651,0.33897 -2.26632,2.55589 -3.49537,5.74121 -8.89141,7.26609 -0.0955,0.0266 -0.19084,0.0274 -0.23953,-0.0907 -0.05,-0.11894 -0.0295,-0.30775 0.0652,-0.33895 z"
           id="path3871"
           inkscape:connector-curvature="0"
           sodipodi:nodetypes="sssssss" />
        <path
           inkscape:connector-curvature="0"
           style="opacity:0.7;fill:#000000;fill-opacity:1;stroke:none"
           d="m 130.6875,277.03125 c 0,0 -9.87209,5.06622 -8.96875,8.4375 l 1.96875,7.34375 c -0.0104,-0.0999 -0.0112,-0.2114 0.0312,-0.3125 0.0402,-0.0959 0.0858,-0.17687 0.15625,-0.21875 -0.007,-0.0128 -0.0251,-0.0162 -0.0312,-0.0312 -0.0816,-0.20005 -0.0643,-0.51014 0.0937,-0.5625 5.57598,-1.84759 9.8253,-6.40955 14.9375,-12.21875 0.0332,-0.0377 0.0874,-0.0541 0.125,-0.0625 0.0737,-0.0165 0.12978,0.026 0.1875,0.0937 0.14238,-0.23237 0.2651,-0.47832 0.40625,-0.71875 -0.004,-0.0512 0,-0.1875 0,-0.1875 l -8.90625,-1.5625 z M 123.75,293 l 23.28125,86.90625 c 0.90334,3.37129 4.31621,5.37209 7.6875,4.46875 l 7.15625,-1.9375 c 1.30701,-0.35021 1.8046,-2.85918 1.8125,-5.96875 -0.27032,-0.0674 -0.54218,-0.144 -0.8125,-0.21875 -0.003,0.009 0.004,0.0228 0,0.0312 -0.10731,0.25638 -0.32079,0.244 -0.53125,0.1875 -11.92565,-3.2726 -14.64755,-10.10826 -19.65625,-15.5937 -0.15323,-0.16783 -0.22482,-0.41894 -0.15625,-0.65625 -0.004,-0.12054 0.044,-0.22321 0.125,-0.25 0.0738,-0.0816 0.16042,-0.10105 0.25,-0.0937 3.98185,-1.41305 7.07967,-4.71015 10.75,-8.875 -10.42172,-2.73799 -12.83006,-8.37888 -17.25,-12.90625 -0.14928,-0.15276 -0.2204,-0.38162 -0.125,-0.59375 0.0172,-0.0383 0.0374,-0.0635 0.0625,-0.0937 -0.004,-0.0107 0.002,-0.0177 0,-0.0312 -0.005,-0.0249 -4e-4,-0.0655 0,-0.0937 -0.0918,0.0321 -0.17195,0.0206 -0.21875,-0.125 -0.0468,-0.14516 -0.0282,-0.36825 0.0625,-0.40625 3.06735,-1.28535 5.44375,-4.4077 8.21875,-8.375 -8.46501,-2.59548 -10.43003,-7.9872 -14,-12.3125 -0.11995,-0.14541 -0.17045,-0.36058 -0.0937,-0.5625 0.01,-0.0253 0.0188,-0.0406 0.0312,-0.0625 -0.0667,-0.006 -0.11941,-0.0401 -0.15625,-0.125 -0.0614,-0.1411 -0.0565,-0.33807 0.0625,-0.375 4.05333,-1.25834 7.20015,-4.32244 10.875,-8.21875 -0.0644,0.004 -0.11847,-0.0127 -0.1875,-0.0312 -10.37712,-2.8477 -12.76667,-8.78933 -17.125,-13.5625 -0.0316,-0.0346 -0.0497,-0.0827 -0.0625,-0.125 z"
           transform="translate(170.09301,172.76791)"
           id="path3873" />
      </g>
    </g>
  </g>
  <g
     transform="translate(-167.40501,-184.85376)"
     id="g4296"
     inkscape:groupmode="layer"
     inkscape:label="Whip"
     style="display:inline"
     sodipodi:insensitive="true">
    <path
       sodipodi:nodetypes="scccccccccccccscccas"
       inkscape:connector-curvature="0"
       id="path4298"
       transform="translate(170.09301,172.76791)"
       d="M 120.78125,12.125 C 93.398549,12.191311 71.32529,26.453233 53.1875,49.28125 34.901145,63.487439 17.302085,83.21221 0.6875,105.125 15.913277,87.289076 31.682679,69.858339 48.03125,56.1875 31.557401,79.339824 18.482055,109.66729 7.65625,142.40625 20.178283,110.80139 33.824103,79.539826 51.28125,55.9375 47.827028,81.719651 39.431072,109.52322 30.1875,137.03125 c 11.823445,-29.42623 20.881156,-58.488184 24.09375,-85 20.517128,-26.040919 46.23989,-41.499158 81.21875,-35.375 0.63066,0.167912 1.3006,0.44825 2.1875,1.09375 64.19701,57.62796 49.03049,142.2639 57.28125,218.9375 0.0316,0.29337 0.37124,0.45137 0.65625,0.375 l 3.09375,-0.8125 c 0.28501,-0.0764 0.39517,-0.36189 0.375,-0.65625 -5.4927,-80.33293 4.39998,-168.031682 -59.09375,-220.625 -0.0852,-0.07058 -0.14429,-0.148973 -0.21875,-0.21875 -0.0176,-0.01646 -0.0448,-0.01633 -0.0625,-0.03125 C 138.73787,14.154714 138.02404,14.0535 137.25,13.875 137.14282,13.85028 137.09713,13.725146 137,13.6875 131.93582,11.72462 125.99356,12.112377 120.78125,12.125 z"
       style="fill:#000000;fill-opacity:1;stroke:none" />
    <g
       id="g4300" />
    <g
       transform="matrix(1.5561267,0,0,1.5561267,-102.31406,-294.57758)"
       id="g4302">
      <path
         style="fill:#803300;fill-opacity:1;stroke:none"
         d="m 300.78315,449.81401 8.90433,1.54237 c 0,0 3.33022,50.13687 9.56854,61.74956 l 12.3034,22.90285 c 1.6517,3.07466 3.79055,18.30143 0.41926,19.20477 l -7.15274,1.91657 c -3.37129,0.90334 -6.8126,-1.0835 -7.71594,-4.45479 l -25.30756,-94.4491 c -0.90334,-3.37128 8.98071,-8.41223 8.98071,-8.41223 z"
         id="path4304"
         inkscape:connector-curvature="0"
         sodipodi:nodetypes="sssssssss" />
      <path
         style="fill:#2b1100;fill-opacity:1;stroke:none"
         d="m 294.03906,464.44484 c 5.57598,-1.84759 9.82261,-6.39572 14.93481,-12.20492 0.1326,-0.15068 0.32063,-0.0481 0.4022,0.15253 0.0816,0.19989 0.0198,0.42535 -0.10778,0.5693 -3.80668,4.29326 -5.87115,9.64355 -14.9348,12.20493 -0.15995,0.0443 -0.32064,0.0481 -0.4022,-0.15252 -0.0816,-0.20005 -0.0503,-0.51696 0.10777,-0.56932 z"
         id="path4306"
         inkscape:connector-curvature="0"
         sodipodi:nodetypes="sssssss" />
      <path
         sodipodi:nodetypes="sssssss"
         inkscape:connector-curvature="0"
         id="path4308"
         d="m 311.35714,478.65466 c -6.38403,-2.05412 -11.24607,-7.11065 -17.09911,-13.56921 -0.15182,-0.16752 -0.3671,-0.0535 -0.46049,0.16958 -0.0934,0.22223 -0.0227,0.4729 0.1234,0.63294 4.35833,4.77317 6.72198,10.72152 17.0991,13.56922 0.18313,0.0492 0.36711,0.0535 0.46049,-0.16957 0.0934,-0.22241 0.0576,-0.57474 -0.12339,-0.63296 z"
         style="fill:#2b1100;fill-opacity:1;stroke:none" />
      <path
         sodipodi:nodetypes="sssssss"
         inkscape:connector-curvature="0"
         id="path4310"
         d="m 300.35421,487.69291 c 4.19753,-1.30311 7.39435,-4.51091 11.24276,-8.60815 0.0998,-0.10628 0.24137,-0.0339 0.30277,0.10758 0.0614,0.14098 0.0149,0.3 -0.0811,0.40153 -2.86563,3.02804 -4.41974,6.80161 -11.24276,8.60815 -0.12041,0.0312 -0.24137,0.0339 -0.30277,-0.10757 -0.0614,-0.1411 -0.0379,-0.36461 0.0811,-0.40154 z"
         style="fill:#2b1100;fill-opacity:1;stroke:none" />
      <path
         style="fill:#2b1100;fill-opacity:1;stroke:none"
         d="m 314.82908,500.43512 c -5.24324,-1.86636 -9.23647,-6.46071 -14.04362,-12.32894 -0.12469,-0.15221 -0.3015,-0.0486 -0.3782,0.15408 -0.0767,0.20192 -0.0186,0.42968 0.10135,0.57509 3.57953,4.33689 5.52081,9.74154 14.04361,12.32895 0.15041,0.0447 0.30151,0.0486 0.37821,-0.15407 0.0767,-0.20208 0.0473,-0.52221 -0.10135,-0.57511 z"
         id="path4312"
         inkscape:connector-curvature="0"
         sodipodi:nodetypes="sssssss" />
      <path
         sodipodi:nodetypes="sssssss"
         inkscape:connector-curvature="0"
         id="path4314"
         d="m 306.28264,509.51467 c 3.19935,-1.34066 5.63596,-4.64089 8.56921,-8.8562 0.0761,-0.10934 0.18397,-0.0349 0.23077,0.11068 0.0468,0.14505 0.0114,0.30865 -0.0618,0.4131 -2.18418,3.1153 -3.36872,6.99761 -8.56921,8.85621 -0.0918,0.0321 -0.18397,0.0349 -0.23077,-0.11067 -0.0468,-0.14516 -0.0289,-0.37512 0.0618,-0.41312 z"
         style="fill:#2b1100;fill-opacity:1;stroke:none" />
      <path
         sodipodi:nodetypes="sssssss"
         inkscape:connector-curvature="0"
         id="path4316"
         d="m 324.29005,523.05929 c -6.51538,-1.96069 -11.47746,-6.78728 -17.45095,-12.95215 -0.15491,-0.15993 -0.37462,-0.0508 -0.46997,0.16184 -0.0954,0.21213 -0.0233,0.45141 0.12598,0.60417 4.44799,4.55611 6.86029,10.23396 17.45092,12.95216 0.1869,0.0472 0.37464,0.0508 0.46997,-0.16181 0.0954,-0.2123 0.0591,-0.54865 -0.12595,-0.60421 z"
         style="fill:#2b1100;fill-opacity:1;stroke:none" />
      <path
         sodipodi:nodetypes="sssssss"
         inkscape:connector-curvature="0"
         id="path4318"
         d="m 312.74102,532.73005 c 4.16338,-1.37949 7.33417,-4.77542 11.15131,-9.11293 0.099,-0.11247 0.23942,-0.0349 0.30032,0.11392 0.0618,0.1492 0.0148,0.31752 -0.0811,0.42512 -2.84233,3.20553 -4.38379,7.20047 -11.15131,9.11291 -0.11957,0.0337 -0.23936,0.0349 -0.30043,-0.11392 -0.0618,-0.14923 -0.0371,-0.38597 0.0812,-0.4251 z"
         style="fill:#2b1100;fill-opacity:1;stroke:none" />
      <path
         style="fill:#2b1100;fill-opacity:1;stroke:none"
         d="m 332.82678,548.31358 c -7.33669,-2.36065 -12.92426,-8.17174 -19.65073,-15.59408 -0.17448,-0.19253 -0.42187,-0.0615 -0.5292,0.19488 -0.10738,0.25539 -0.0261,0.54348 0.14182,0.7274 5.0087,5.48544 7.72506,12.32143 19.65071,15.59408 0.21046,0.0565 0.42189,0.0615 0.5292,-0.19488 0.10739,-0.25559 0.0662,-0.6605 -0.1418,-0.7274 z"
         id="path4320"
         inkscape:connector-curvature="0"
         sodipodi:nodetypes="sssssss" />
      <path
         sodipodi:nodetypes="sssssss"
         inkscape:connector-curvature="0"
         id="path4322"
         d="m 296.98518,465.41755 c 3.8971,-1.2913 6.8651,-4.47002 10.43806,-8.53013 0.0927,-0.10531 0.22409,-0.0336 0.2811,0.1066 0.0571,0.13971 0.0138,0.29728 -0.0753,0.3979 -2.66053,3.00059 -4.1034,6.73995 -10.43807,8.53013 -0.11179,0.031 -0.22409,0.0336 -0.2811,-0.1066 -0.0571,-0.13981 -0.0352,-0.36131 0.0753,-0.3979 z"
         style="opacity:0.2;fill:#ffffff;fill-opacity:1;stroke:none" />
      <path
         style="opacity:0.2;fill:#ffffff;fill-opacity:1;stroke:none"
         d="m 302.38943,489.10094 c 3.40723,-1.05776 6.0021,-3.66157 9.12581,-6.98725 0.0806,-0.0864 0.19591,-0.0273 0.24576,0.0876 0.0504,0.11441 0.0127,0.24348 -0.0657,0.3259 -2.32602,2.45785 -3.58749,5.52086 -9.12571,6.98727 -0.0978,0.0246 -0.19597,0.0273 -0.24571,-0.0876 -0.0504,-0.11448 -0.0313,-0.29596 0.0657,-0.32591 z"
         id="path4324"
         inkscape:connector-curvature="0"
         sodipodi:nodetypes="sssssss" />
      <path
         style="opacity:0.2;fill:#ffffff;fill-opacity:1;stroke:none"
         d="m 308.19825,510.57571 c 2.48091,-1.03955 4.37031,-3.59864 6.64479,-6.86725 0.0587,-0.0851 0.14265,-0.0269 0.17893,0.0858 0.0368,0.11249 0.01,0.23935 -0.0478,0.32033 -1.69366,2.41564 -2.61218,5.42608 -6.64473,6.8673 -0.0718,0.0243 -0.14269,0.0269 -0.17892,-0.0862 -0.0368,-0.11256 -0.0229,-0.29084 0.0478,-0.32033 z"
         id="path4326"
         inkscape:connector-curvature="0"
         sodipodi:nodetypes="sssssss" />
      <path
         style="opacity:0.2;fill:#ffffff;fill-opacity:1;stroke:none"
         d="m 315.31665,533.52337 c 3.31962,-1.09992 5.8478,-3.80762 8.89138,-7.2661 0.0788,-0.0894 0.19088,-0.0275 0.23945,0.0907 0.05,0.11893 0.012,0.25314 -0.0651,0.33897 -2.26632,2.55589 -3.49537,5.74121 -8.89141,7.26609 -0.0955,0.0266 -0.19084,0.0274 -0.23953,-0.0907 -0.05,-0.11894 -0.0295,-0.30775 0.0652,-0.33895 z"
         id="path4328"
         inkscape:connector-curvature="0"
         sodipodi:nodetypes="sssssss" />
      <path
         inkscape:connector-curvature="0"
         style="opacity:0.7;fill:#552200;fill-opacity:1;stroke:none"
         d="m 130.6875,277.03125 c 0,0 -9.87209,5.06622 -8.96875,8.4375 l 1.96875,7.34375 c -0.0104,-0.0999 -0.0112,-0.2114 0.0312,-0.3125 0.0402,-0.0959 0.0858,-0.17687 0.15625,-0.21875 -0.007,-0.0128 -0.0251,-0.0162 -0.0312,-0.0312 -0.0816,-0.20005 -0.0643,-0.51014 0.0937,-0.5625 5.57598,-1.84759 9.8253,-6.40955 14.9375,-12.21875 0.0332,-0.0377 0.0874,-0.0541 0.125,-0.0625 0.0737,-0.0165 0.12978,0.026 0.1875,0.0937 0.14238,-0.23237 0.2651,-0.47832 0.40625,-0.71875 -0.004,-0.0512 0,-0.1875 0,-0.1875 l -8.90625,-1.5625 z M 123.75,293 l 23.28125,86.90625 c 0.90334,3.37129 4.31621,5.37209 7.6875,4.46875 l 7.15625,-1.9375 c 1.30701,-0.35021 1.8046,-2.85918 1.8125,-5.96875 -0.27032,-0.0674 -0.54218,-0.144 -0.8125,-0.21875 -0.003,0.009 0.004,0.0228 0,0.0312 -0.10731,0.25638 -0.32079,0.244 -0.53125,0.1875 -11.92565,-3.2726 -14.64755,-10.10826 -19.65625,-15.5937 -0.15323,-0.16783 -0.22482,-0.41894 -0.15625,-0.65625 -0.004,-0.12054 0.044,-0.22321 0.125,-0.25 0.0738,-0.0816 0.16042,-0.10105 0.25,-0.0937 3.98185,-1.41305 7.07967,-4.71015 10.75,-8.875 -10.42172,-2.73799 -12.83006,-8.37888 -17.25,-12.90625 -0.14928,-0.15276 -0.2204,-0.38162 -0.125,-0.59375 0.0172,-0.0383 0.0374,-0.0635 0.0625,-0.0937 -0.004,-0.0107 0.002,-0.0177 0,-0.0312 -0.005,-0.0249 -4e-4,-0.0655 0,-0.0937 -0.0918,0.0321 -0.17195,0.0206 -0.21875,-0.125 -0.0468,-0.14516 -0.0282,-0.36825 0.0625,-0.40625 3.06735,-1.28535 5.44375,-4.4077 8.21875,-8.375 -8.46501,-2.59548 -10.43003,-7.9872 -14,-12.3125 -0.11995,-0.14541 -0.17045,-0.36058 -0.0937,-0.5625 0.01,-0.0253 0.0188,-0.0406 0.0312,-0.0625 -0.0667,-0.006 -0.11941,-0.0401 -0.15625,-0.125 -0.0614,-0.1411 -0.0565,-0.33807 0.0625,-0.375 4.05333,-1.25834 7.20015,-4.32244 10.875,-8.21875 -0.0644,0.004 -0.11847,-0.0127 -0.1875,-0.0312 -10.37712,-2.8477 -12.76667,-8.78933 -17.125,-13.5625 -0.0316,-0.0346 -0.0497,-0.0827 -0.0625,-0.125 z"
         transform="translate(170.09301,172.76791)"
         id="path4330" />
    </g>
  </g>
</svg>
