<?xml version="1.0" encoding="UTF-8" ?>
<!DOCTYPE svg PUBLIC "-//W3C//DTD SVG 1.1//EN" "http://www.w3.org/Graphics/SVG/1.1/DTD/svg11.dtd">
<svg width="117pt" height="160pt" viewBox="0 0 117 160" version="1.1" xmlns="http://www.w3.org/2000/svg">
<g id="#ffa81eff">
<path fill="#ffa81e" opacity="1.00" d=" M 9.04 4.95 C 36.09 3.54 63.15 2.26 90.20 0.92 C 92.11 3.21 94.76 5.15 95.57 8.15 C 102.34 34.19 109.02 60.26 115.84 86.30 C 116.92 90.14 116.01 94.13 115.94 98.03 C 109.21 105.44 100.29 110.28 92.55 116.50 C 91.96 124.30 92.19 132.14 91.45 139.93 C 90.84 146.61 91.44 153.36 90.34 160.00 L 1.49 160.00 C 0.48 155.71 1.12 151.28 1.04 146.93 C 1.66 130.28 1.98 113.62 2.03 96.96 C 2.64 80.65 2.99 64.32 3.01 48.00 C 3.41 35.27 3.86 22.54 3.92 9.80 C 5.62 8.17 7.33 6.56 9.04 4.95 Z" />
</g>
</svg>
