<?xml version="1.0" encoding="UTF-8" ?>
<!DOCTYPE svg PUBLIC "-//W3C//DTD SVG 1.1//EN" "http://www.w3.org/Graphics/SVG/1.1/DTD/svg11.dtd">
<svg width="112pt" height="125pt" viewBox="0 0 112 125" version="1.1" xmlns="http://www.w3.org/2000/svg">
<g id="#ffa81eff">
<path fill="#ffa81e" opacity="1.00" d=" M 84.43 0.00 L 89.74 0.00 C 91.44 0.71 93.12 1.50 94.78 2.31 C 99.75 23.59 105.42 44.72 110.51 65.98 C 109.12 68.02 108.31 70.73 105.98 71.92 C 103.48 73.44 100.71 74.53 98.36 76.29 C 96.84 78.43 95.41 80.65 94.17 82.96 C 93.32 96.97 92.85 110.99 92.05 125.00 L 0.77 125.00 C 1.05 115.34 0.81 105.66 1.36 96.01 C 2.07 81.01 1.72 66.00 2.48 51.01 C 3.10 37.52 2.68 24.00 3.47 10.51 C 5.83 8.38 8.17 6.22 10.45 4.01 C 26.33 3.59 42.16 2.20 58.03 1.69 C 66.81 0.72 75.67 1.14 84.43 0.00 Z" />
</g>
</svg>
