<?xml version="1.0" encoding="UTF-8" ?>
<!DOCTYPE svg PUBLIC "-//W3C//DTD SVG 1.1//EN" "http://www.w3.org/Graphics/SVG/1.1/DTD/svg11.dtd">
<svg width="117pt" height="160pt" viewBox="0 0 117 160" version="1.1" xmlns="http://www.w3.org/2000/svg">
<g id="#ff3e3eff">
<path fill="#ff3e3e" opacity="1.00" d=" M 9.03 4.95 C 36.09 3.54 63.16 2.26 90.22 0.92 C 92.34 3.40 95.18 5.60 95.81 8.99 C 102.45 34.78 109.13 60.57 115.85 86.34 C 116.90 90.18 116.02 94.15 115.94 98.04 C 109.20 105.43 100.29 110.28 92.55 116.50 C 91.97 123.98 92.21 131.50 91.52 138.97 C 90.86 145.97 91.41 153.03 90.38 160.00 L 1.42 160.00 C 0.63 155.70 1.03 151.31 1.04 146.97 C 1.63 130.66 1.99 114.34 2.01 98.01 C 2.57 81.68 3.00 65.35 3.00 49.01 C 3.35 35.95 3.89 22.90 3.91 9.83 C 5.60 8.20 7.31 6.57 9.03 4.95 Z" />
</g>
</svg>
