<?xml version="1.0" encoding="UTF-8" ?>
<!DOCTYPE svg PUBLIC "-//W3C//DTD SVG 1.1//EN" "http://www.w3.org/Graphics/SVG/1.1/DTD/svg11.dtd">
<svg width="112pt" height="125pt" viewBox="0 0 112 125" version="1.1" xmlns="http://www.w3.org/2000/svg">
<g id="#ff3e3eff">
<path fill="#ff3e3e" opacity="1.00" d=" M 84.47 0.00 L 89.66 0.00 C 91.39 0.71 93.09 1.49 94.78 2.30 C 99.76 23.58 105.41 44.72 110.51 65.97 C 109.44 67.70 108.58 69.62 107.18 71.12 C 104.42 73.12 101.10 74.22 98.39 76.29 C 96.83 78.41 95.39 80.63 94.19 82.96 C 93.30 96.96 92.85 110.99 92.06 125.00 L 0.77 125.00 C 0.78 107.00 1.78 89.03 1.96 71.04 C 1.89 60.00 2.73 49.00 2.83 37.97 C 3.03 28.82 2.87 19.66 3.47 10.52 C 5.82 8.38 8.16 6.22 10.46 4.01 C 13.32 3.98 16.17 3.93 19.03 3.78 C 40.83 2.25 62.68 1.68 84.47 0.00 Z" />
</g>
</svg>
