<?xml version="1.0" encoding="UTF-8" ?>
<!DOCTYPE svg PUBLIC "-//W3C//DTD SVG 1.1//EN" "http://www.w3.org/Graphics/SVG/1.1/DTD/svg11.dtd">
<svg width="120pt" height="160pt" viewBox="0 0 120 160" version="1.1" xmlns="http://www.w3.org/2000/svg">
<g id="#a3e852ff">
<path fill="#a3e852" opacity="1.00" d=" M 10.06 4.94 C 37.12 3.56 64.18 2.23 91.24 0.94 C 93.13 3.23 95.75 5.16 96.56 8.14 C 103.34 34.20 110.03 60.28 116.85 86.33 C 117.92 90.16 117.01 94.14 116.94 98.03 C 110.21 105.44 101.29 110.28 93.55 116.50 C 92.96 124.32 93.19 132.17 92.45 139.97 C 91.84 146.64 92.44 153.38 91.34 160.00 L 2.50 160.00 C 1.46 155.73 2.14 151.30 2.04 146.96 C 2.64 130.64 2.99 114.31 3.02 97.98 C 3.60 81.32 4.00 64.66 4.02 47.99 C 4.42 35.26 4.85 22.52 4.93 9.77 C 6.64 8.16 8.34 6.55 10.06 4.94 Z" />
</g>
</svg>
