<?xml version="1.0" encoding="UTF-8" ?>
<!DOCTYPE svg PUBLIC "-//W3C//DTD SVG 1.1//EN" "http://www.w3.org/Graphics/SVG/1.1/DTD/svg11.dtd">
<svg width="112pt" height="125pt" viewBox="0 0 112 125" version="1.1" xmlns="http://www.w3.org/2000/svg">
<g id="#a3e852ff">
<path fill="#a3e852" opacity="1.00" d=" M 84.60 0.00 L 89.71 0.00 C 91.42 0.72 93.10 1.50 94.78 2.30 C 99.76 23.58 105.40 44.71 110.51 65.97 C 109.14 68.01 108.32 70.69 106.01 71.90 C 103.52 73.44 100.72 74.50 98.39 76.30 C 96.50 79.27 93.55 82.13 94.00 85.95 C 93.22 98.96 92.81 111.99 92.05 125.00 L 0.77 125.00 C 0.83 103.98 2.06 82.99 2.05 61.97 C 3.03 44.83 2.65 27.66 3.47 10.53 C 5.82 8.38 8.16 6.21 10.47 4.01 C 19.36 4.10 28.19 2.82 37.08 2.81 C 52.91 1.59 68.79 1.36 84.60 0.00 Z" />
</g>
</svg>
