<?xml version="1.0" encoding="UTF-8" ?>
<!DOCTYPE svg PUBLIC "-//W3C//DTD SVG 1.1//EN" "http://www.w3.org/Graphics/SVG/1.1/DTD/svg11.dtd">
<svg width="112pt" height="125pt" viewBox="0 0 112 125" version="1.1" xmlns="http://www.w3.org/2000/svg">
<g id="#ff8d1eff">
<path fill="#ff8d1e" opacity="1.00" d=" M 84.45 0.00 L 89.74 0.00 C 91.44 0.72 93.11 1.50 94.77 2.30 C 99.76 23.59 105.41 44.72 110.51 65.99 C 109.13 68.02 108.32 70.70 106.01 71.90 C 103.51 73.45 100.69 74.51 98.36 76.32 C 96.81 78.43 95.39 80.65 94.19 82.97 C 93.28 96.97 92.84 110.99 92.05 125.00 L 0.77 125.00 C 0.83 103.97 2.06 82.97 2.05 61.95 C 3.03 44.82 2.65 27.66 3.46 10.53 C 5.82 8.38 8.16 6.22 10.46 4.01 C 13.34 3.98 16.23 3.93 19.11 3.78 C 40.88 2.27 62.70 1.68 84.45 0.00 Z" />
</g>
</svg>
