<?xml version="1.0" encoding="UTF-8" ?>
<!DOCTYPE svg PUBLIC "-//W3C//DTD SVG 1.1//EN" "http://www.w3.org/Graphics/SVG/1.1/DTD/svg11.dtd">
<svg width="120pt" height="160pt" viewBox="0 0 120 160" version="1.1" xmlns="http://www.w3.org/2000/svg">
<g id="#ff8d1eff">
<path fill="#ff8d1e" opacity="1.00" d=" M 10.04 4.94 C 37.11 3.56 64.18 2.22 91.25 0.94 C 93.12 3.22 95.72 5.14 96.55 8.09 C 103.33 34.15 110.02 60.24 116.84 86.29 C 117.93 90.14 117.01 94.13 116.94 98.04 C 110.21 105.44 101.29 110.28 93.55 116.50 C 92.96 124.31 93.20 132.15 92.45 139.95 C 91.84 146.62 92.45 153.37 91.33 160.00 L 2.48 160.00 C 1.50 155.74 2.11 151.33 2.04 147.01 C 2.63 130.67 2.99 114.33 3.01 97.98 C 3.60 81.32 4.00 64.65 4.01 47.98 C 4.41 35.26 4.87 22.55 4.92 9.82 C 6.61 8.18 8.33 6.56 10.04 4.94 Z" />
</g>
</svg>
