<?xml version="1.0" encoding="UTF-8" ?>
<!DOCTYPE svg PUBLIC "-//W3C//DTD SVG 1.1//EN" "http://www.w3.org/Graphics/SVG/1.1/DTD/svg11.dtd">
<svg width="112pt" height="125pt" viewBox="0 0 112 125" version="1.1" xmlns="http://www.w3.org/2000/svg">
<g id="#f4ff40ff">
<path fill="#f4ff40" opacity="1.00" d=" M 84.35 0.00 L 89.76 0.00 C 91.46 0.72 93.12 1.50 94.78 2.31 C 99.75 23.59 105.41 44.72 110.51 65.97 C 109.43 67.72 108.57 69.66 107.13 71.15 C 104.38 73.15 101.06 74.22 98.37 76.31 C 96.82 78.42 95.39 80.64 94.19 82.96 C 93.28 96.96 92.84 110.99 92.05 125.00 L 0.77 125.00 C 1.05 115.32 0.81 105.64 1.37 95.97 C 2.08 80.68 1.73 65.36 2.51 50.07 C 3.10 36.89 2.70 23.69 3.47 10.52 C 5.82 8.38 8.16 6.23 10.44 4.02 C 13.29 3.98 16.14 3.93 18.98 3.78 C 40.76 2.27 62.59 1.70 84.35 0.00 Z" />
</g>
</svg>
