<?xml version="1.0" encoding="UTF-8" ?>
<!DOCTYPE svg PUBLIC "-//W3C//DTD SVG 1.1//EN" "http://www.w3.org/Graphics/SVG/1.1/DTD/svg11.dtd">
<svg width="117pt" height="160pt" viewBox="0 0 117 160" version="1.1" xmlns="http://www.w3.org/2000/svg">
<g id="#f4ff40ff">
<path fill="#f4ff40" opacity="1.00" d=" M 9.04 4.95 C 36.10 3.55 63.16 2.24 90.23 0.94 C 92.08 3.24 94.77 5.11 95.55 8.10 C 102.32 34.14 109.02 60.21 115.82 86.25 C 117.00 90.09 115.95 94.10 115.95 98.03 C 109.22 105.44 100.28 110.27 92.55 116.51 C 91.95 124.30 92.21 132.14 91.45 139.92 C 90.82 146.60 91.49 153.36 90.32 159.99 L 90.90 160.00 L 1.55 160.00 C 0.39 156.12 1.19 152.00 1.01 148.02 C 1.60 131.34 2.01 114.65 2.01 97.95 C 2.60 81.29 3.00 64.63 3.01 47.96 C 3.40 35.26 3.89 22.57 3.90 9.87 C 5.58 8.20 7.30 6.56 9.04 4.95 Z" />
</g>
</svg>
