<?xml version="1.0" encoding="UTF-8" ?>
<!DOCTYPE svg PUBLIC "-//W3C//DTD SVG 1.1//EN" "http://www.w3.org/Graphics/SVG/1.1/DTD/svg11.dtd">
<svg width="112pt" height="125pt" viewBox="0 0 112 125" version="1.1" xmlns="http://www.w3.org/2000/svg">
<g id="#69f47dff">
<path fill="#69f47d" opacity="1.00" d=" M 84.47 0.00 L 89.73 0.00 C 91.43 0.72 93.11 1.50 94.77 2.30 C 99.76 23.59 105.41 44.72 110.51 65.99 C 109.14 68.02 108.31 70.69 106.01 71.90 C 103.51 73.45 100.70 74.50 98.37 76.32 C 96.48 79.30 93.53 82.17 93.99 85.99 C 93.22 98.99 92.80 112.00 92.05 125.00 L 0.77 125.00 C 1.05 115.19 0.82 105.36 1.38 95.56 C 2.08 80.43 1.73 65.28 2.51 50.16 C 3.10 36.95 2.69 23.71 3.48 10.51 C 5.83 8.38 8.17 6.22 10.46 4.01 C 19.32 4.10 28.12 2.83 36.98 2.82 C 52.80 1.60 68.67 1.38 84.47 0.00 Z" />
</g>
</svg>
