<?xml version="1.0" encoding="UTF-8" ?>
<!DOCTYPE svg PUBLIC "-//W3C//DTD SVG 1.1//EN" "http://www.w3.org/Graphics/SVG/1.1/DTD/svg11.dtd">
<svg width="117pt" height="160pt" viewBox="0 0 117 160" version="1.1" xmlns="http://www.w3.org/2000/svg">
<g id="#69f47dff">
<path fill="#69f47d" opacity="1.00" d=" M 9.03 4.95 C 36.09 3.54 63.16 2.24 90.23 0.93 C 92.11 3.23 94.76 5.15 95.56 8.14 C 102.33 34.17 109.01 60.22 115.83 86.24 C 116.94 90.10 116.00 94.11 115.94 98.03 C 109.21 105.45 100.28 110.27 92.55 116.51 C 91.96 124.32 92.19 132.18 91.45 139.98 C 90.84 146.64 91.45 153.38 90.33 160.00 L 1.50 160.00 C 0.45 155.72 1.15 151.28 1.04 146.93 C 1.66 130.28 1.98 113.63 2.03 96.98 C 2.64 80.66 2.99 64.34 3.01 48.01 C 3.42 35.28 3.86 22.54 3.92 9.80 C 5.61 8.17 7.32 6.57 9.03 4.95 Z" />
</g>
</svg>
