<?xml version="1.0" encoding="UTF-8" standalone="no"?>
<!-- Created with Inkscape (http://www.inkscape.org/) -->

<svg
   xmlns:dc="http://purl.org/dc/elements/1.1/"
   xmlns:cc="http://creativecommons.org/ns#"
   xmlns:rdf="http://www.w3.org/1999/02/22-rdf-syntax-ns#"
   xmlns:svg="http://www.w3.org/2000/svg"
   xmlns="http://www.w3.org/2000/svg"
   xmlns:sodipodi="http://sodipodi.sourceforge.net/DTD/sodipodi-0.dtd"
   xmlns:inkscape="http://www.inkscape.org/namespaces/inkscape"
   width="1000"
   height="1000"
   id="svg2"
   version="1.1"
   inkscape:version="0.48.3.1 r9886"
   inkscape:export-filename="/home/iktwo/Desktop/wifi.png"
   inkscape:export-xdpi="11.52"
   inkscape:export-ydpi="11.52"
   sodipodi:docname="wifi.svg">
  <defs
     id="defs4" />
  <sodipodi:namedview
     id="base"
     pagecolor="#ffffff"
     bordercolor="#666666"
     borderopacity="1.0"
     inkscape:pageopacity="0.0"
     inkscape:pageshadow="2"
     inkscape:zoom="0.49497475"
     inkscape:cx="489.28571"
     inkscape:cy="514.28571"
     inkscape:document-units="px"
     inkscape:current-layer="layer1"
     showgrid="false"
     inkscape:window-width="923"
     inkscape:window-height="585"
     inkscape:window-x="358"
     inkscape:window-y="584"
     inkscape:window-maximized="0" />
  <metadata
     id="metadata7">
    <rdf:RDF>
      <cc:Work
         rdf:about="">
        <dc:format>image/svg+xml</dc:format>
        <dc:type
           rdf:resource="http://purl.org/dc/dcmitype/StillImage" />
        <dc:title></dc:title>
      </cc:Work>
    </rdf:RDF>
  </metadata>
  <g
     inkscape:label="Layer 1"
     inkscape:groupmode="layer"
     id="layer1"
     transform="translate(0,-52.362153)">
    <g
       inkscape:label="Shadow"
       id="layer1-0"
       transform="translate(1.326511,80.74247)"
       style="display:inline">
      <g
         id="g3764"
         style="opacity:0.4;fill:#000000"
         transform="translate(101.01526,153.54319)">
        <path
           sodipodi:nodetypes="ccccc"
           inkscape:connector-curvature="0"
           id="rect2985"
           d="m 377.14287,346.6479 10e-6,2.85714 68.57143,468.57145 -114.28573,0 z"
           style="fill:#000000;fill-opacity:1;fill-rule:nonzero;stroke:none" />
        <path
           transform="matrix(0.70833442,0,0,0.64151037,166.07119,241.22399)"
           d="m 368.57143,130.93361 c 0,41.81584 -30.70048,75.71429 -68.57143,75.71429 -37.87095,0 -68.57143,-33.89845 -68.57143,-75.71429 0,-41.815847 30.70048,-75.714288 68.57143,-75.714288 37.87095,0 68.57143,33.898441 68.57143,75.714288 z"
           sodipodi:ry="75.714287"
           sodipodi:rx="68.571426"
           sodipodi:cy="130.93361"
           sodipodi:cx="300"
           id="path2988"
           style="fill:#000000;fill-opacity:1;fill-rule:nonzero;stroke:none"
           sodipodi:type="arc" />
      </g>
      <path
         sodipodi:type="arc"
         style="opacity:0.4;fill:none;stroke:#000000;stroke-width:40;stroke-miterlimit:4;stroke-opacity:1;stroke-dasharray:960, 960;stroke-dashoffset:0"
         id="path2990"
         sodipodi:cx="404.28571"
         sodipodi:cy="359.50504"
         sodipodi:rx="298.57144"
         sodipodi:ry="295.71429"
         d="m 702.85715,359.50504 c 0,163.31849 -133.67499,295.71429 -298.57144,295.71429 -164.89646,0 -298.57145,-132.3958 -298.57145,-295.71429 0,-163.3185 133.67499,-295.714299 298.57145,-295.714299 164.89645,0 298.57144,132.395799 298.57144,295.714299 z"
         transform="matrix(-0.99958302,0.02887523,-0.02887523,-0.99958302,899.79889,832.1581)" />
      <path
         transform="matrix(-0.80654969,0.03175645,-0.03175645,-0.80654969,822.79407,803.90594)"
         d="m 702.85715,359.50504 c 0,163.31849 -133.67499,295.71429 -298.57144,295.71429 -164.89646,0 -298.57145,-132.3958 -298.57145,-295.71429 0,-163.3185 133.67499,-295.714299 298.57145,-295.714299 164.89645,0 298.57144,132.395799 298.57144,295.714299 z"
         sodipodi:ry="295.71429"
         sodipodi:rx="298.57144"
         sodipodi:cy="359.50504"
         sodipodi:cx="404.28571"
         id="path3760"
         style="opacity:0.4;fill:none;stroke:#000000;stroke-width:40;stroke-miterlimit:4;stroke-opacity:1;stroke-dasharray:960, 960;stroke-dashoffset:0"
         sodipodi:type="arc" />
      <path
         sodipodi:type="arc"
         style="opacity:0.4;fill:none;stroke:#000000;stroke-width:40;stroke-miterlimit:4;stroke-opacity:1;stroke-dasharray:960, 960;stroke-dashoffset:0"
         id="path3762"
         sodipodi:cx="404.28571"
         sodipodi:cy="359.50504"
         sodipodi:rx="298.57144"
         sodipodi:ry="295.71429"
         d="m 702.85715,359.50504 c 0,163.31849 -133.67499,295.71429 -298.57144,295.71429 -164.89646,0 -298.57145,-132.3958 -298.57145,-295.71429 0,-163.3185 133.67499,-295.714299 298.57145,-295.714299 164.89645,0 298.57144,132.395799 298.57144,295.714299 z"
         transform="matrix(-0.58984437,0.01311642,-0.01311642,-0.58984437,727.86478,759.24947)" />
    </g>
    <g
       id="g3795"
       style="fill:#cccccc"
       transform="translate(122.54482,226.20444)">
      <path
         sodipodi:nodetypes="ccccc"
         inkscape:connector-curvature="0"
         id="path3797"
         d="m 377.14287,346.6479 10e-6,2.85714 68.57143,468.57145 -114.28573,0 z"
         style="fill:#cccccc;fill-opacity:1;fill-rule:nonzero;stroke:none" />
      <path
         transform="matrix(0.70833442,0,0,0.64151037,166.07119,241.22399)"
         d="m 368.57143,130.93361 c 0,41.81584 -30.70048,75.71429 -68.57143,75.71429 -37.87095,0 -68.57143,-33.89845 -68.57143,-75.71429 0,-41.815847 30.70048,-75.714288 68.57143,-75.714288 37.87095,0 68.57143,33.898441 68.57143,75.714288 z"
         sodipodi:ry="75.714287"
         sodipodi:rx="68.571426"
         sodipodi:cy="130.93361"
         sodipodi:cx="300"
         id="path3799"
         style="fill:#cccccc;fill-opacity:1;fill-rule:nonzero;stroke:none"
         sodipodi:type="arc" />
    </g>
    <path
       sodipodi:type="arc"
       style="fill:none;stroke:#60e2e7;stroke-width:40;stroke-miterlimit:4;stroke-opacity:1;stroke-dasharray:960, 960;stroke-dashoffset:0"
       id="path3801"
       sodipodi:cx="404.28571"
       sodipodi:cy="359.50504"
       sodipodi:rx="298.57144"
       sodipodi:ry="295.71429"
       d="m 702.85715,359.50504 a 298.57144,295.71429 0 1 1 -597.14289,0 298.57144,295.71429 0 1 1 597.14289,0 z"
       transform="matrix(-0.99958302,0.02887523,-0.02887523,-0.99958302,921.32845,904.81935)" />
    <path
       transform="matrix(-0.80654969,0.03175645,-0.03175645,-0.80654969,844.32363,876.56719)"
       d="m 702.85715,359.50504 a 298.57144,295.71429 0 1 1 -597.14289,0 298.57144,295.71429 0 1 1 597.14289,0 z"
       sodipodi:ry="295.71429"
       sodipodi:rx="298.57144"
       sodipodi:cy="359.50504"
       sodipodi:cx="404.28571"
       id="path3803"
       style="fill:none;stroke:#60e2e7;stroke-width:40;stroke-miterlimit:4;stroke-opacity:1;stroke-dasharray:960, 960;stroke-dashoffset:0"
       sodipodi:type="arc" />
    <path
       sodipodi:type="arc"
       style="fill:none;stroke:#60e2e7;stroke-width:40;stroke-miterlimit:4;stroke-opacity:1;stroke-dasharray:960, 960;stroke-dashoffset:0"
       id="path3805"
       sodipodi:cx="404.28571"
       sodipodi:cy="359.50504"
       sodipodi:rx="298.57144"
       sodipodi:ry="295.71429"
       d="m 702.85715,359.50504 a 298.57144,295.71429 0 1 1 -597.14289,0 298.57144,295.71429 0 1 1 597.14289,0 z"
       transform="matrix(-0.58984437,0.01311642,-0.01311642,-0.58984437,749.39434,831.91072)" />
  </g>
</svg>
