<?xml version="1.0" encoding="UTF-8" ?>
<!DOCTYPE svg PUBLIC "-//W3C//DTD SVG 1.1//EN" "http://www.w3.org/Graphics/SVG/1.1/DTD/svg11.dtd">
<svg width="112pt" height="125pt" viewBox="0 0 112 125" version="1.1" xmlns="http://www.w3.org/2000/svg">
<g id="#e38e42ff">
<path fill="#e38e42" opacity="1.00" d=" M 84.39 0.00 L 89.75 0.00 C 91.44 0.72 93.11 1.49 94.77 2.29 C 99.77 23.58 105.41 44.72 110.51 65.98 C 109.44 67.71 108.57 69.61 107.19 71.12 C 104.40 73.12 101.08 74.23 98.35 76.32 C 96.82 78.45 95.38 80.66 94.17 82.98 C 93.31 96.98 92.85 111.00 92.05 125.00 L 0.77 125.00 C 0.83 103.99 2.06 83.01 2.05 62.00 C 3.04 44.85 2.64 27.66 3.48 10.51 C 5.83 8.38 8.17 6.22 10.45 4.01 C 26.36 3.59 42.21 2.19 58.11 1.68 C 66.85 0.73 75.67 1.14 84.39 0.00 Z" />
</g>
</svg>
