<?xml version="1.0" encoding="UTF-8" ?>
<!DOCTYPE svg PUBLIC "-//W3C//DTD SVG 1.1//EN" "http://www.w3.org/Graphics/SVG/1.1/DTD/svg11.dtd">
<svg width="117pt" height="160pt" viewBox="0 0 117 160" version="1.1" xmlns="http://www.w3.org/2000/svg">
<g id="#e38e42ff">
<path fill="#e38e42" opacity="1.00" d=" M 9.03 4.95 C 36.09 3.54 63.16 2.24 90.22 0.93 C 91.78 2.68 93.49 4.31 94.80 6.26 C 96.00 8.68 96.33 11.41 97.08 13.98 C 103.33 38.07 109.52 62.17 115.83 86.24 C 116.92 90.10 116.02 94.11 115.94 98.03 C 109.21 105.44 100.29 110.27 92.55 116.50 C 91.95 124.33 92.20 132.19 91.45 140.00 C 90.85 146.65 91.43 153.38 90.35 159.99 L 90.99 160.00 L 1.49 160.00 C 0.49 155.74 1.12 151.33 1.04 147.00 C 1.66 130.35 1.98 113.70 2.03 97.04 C 2.64 80.70 2.99 64.36 3.01 48.01 C 3.42 35.27 3.86 22.54 3.93 9.79 C 5.62 8.17 7.33 6.56 9.03 4.95 Z" />
</g>
</svg>
