<?xml version="1.0" encoding="UTF-8" ?>
<!DOCTYPE svg PUBLIC "-//W3C//DTD SVG 1.1//EN" "http://www.w3.org/Graphics/SVG/1.1/DTD/svg11.dtd">
<svg width="112pt" height="125pt" viewBox="0 0 112 125" version="1.1" xmlns="http://www.w3.org/2000/svg">
<g id="#64ddfbff">
<path fill="#64ddfb" opacity="1.00" d=" M 84.74 0.00 L 89.73 0.00 C 91.44 0.72 93.13 1.51 94.80 2.33 C 99.75 23.60 105.41 44.72 110.51 65.96 C 109.54 67.61 108.65 69.30 107.49 70.83 C 104.74 73.07 101.21 74.12 98.39 76.27 C 96.85 78.40 95.42 80.62 94.18 82.93 C 93.30 96.95 92.85 110.98 92.05 125.00 L 0.77 125.00 C 1.05 115.31 0.81 105.61 1.37 95.94 C 2.08 80.71 1.73 65.46 2.51 50.24 C 3.10 37.01 2.70 23.75 3.46 10.53 C 5.82 8.38 8.17 6.22 10.47 4.01 C 19.34 4.11 28.14 2.82 37.00 2.82 C 52.90 1.60 68.86 1.35 84.74 0.00 Z" />
</g>
</svg>
