<?xml version="1.0" encoding="UTF-8" ?>
<!DOCTYPE svg PUBLIC "-//W3C//DTD SVG 1.1//EN" "http://www.w3.org/Graphics/SVG/1.1/DTD/svg11.dtd">
<svg width="117pt" height="160pt" viewBox="0 0 117 160" version="1.1" xmlns="http://www.w3.org/2000/svg">
<g id="#64ddfbff">
<path fill="#64ddfb" opacity="1.00" d=" M 9.05 4.95 C 36.11 3.56 63.16 2.25 90.22 0.93 C 92.09 3.26 94.83 5.15 95.58 8.19 C 102.34 34.23 109.04 60.28 115.84 86.31 C 117.00 90.14 115.94 94.12 115.95 98.02 C 109.23 105.45 100.27 110.26 92.54 116.52 C 91.96 124.30 92.20 132.11 91.45 139.88 C 90.83 146.58 91.46 153.35 90.33 160.00 L 1.56 160.00 C 0.37 156.11 1.20 151.96 1.02 147.96 C 1.60 131.31 2.01 114.66 2.01 98.00 C 2.60 81.32 3.00 64.64 3.01 47.96 C 3.43 35.24 3.85 22.51 3.93 9.78 C 5.63 8.16 7.34 6.55 9.05 4.95 Z" />
</g>
</svg>
