<?xml version="1.0" encoding="UTF-8" ?>
<!DOCTYPE svg PUBLIC "-//W3C//DTD SVG 1.1//EN" "http://www.w3.org/Graphics/SVG/1.1/DTD/svg11.dtd">
<svg width="117pt" height="160pt" viewBox="0 0 117 160" version="1.1" xmlns="http://www.w3.org/2000/svg">
<g id="#c4c4c4ff">
<path fill="#c4c4c4" opacity="1.00" d=" M 9.02 4.96 C 36.08 3.53 63.15 2.28 90.22 0.92 C 92.33 3.40 95.17 5.59 95.80 8.98 C 102.45 34.75 109.11 60.52 115.83 86.28 C 116.92 90.14 116.00 94.14 115.94 98.06 C 109.18 105.42 100.30 110.29 92.55 116.50 C 91.79 130.99 91.51 145.53 90.37 159.99 L 90.80 160.00 L 1.40 160.00 C 0.63 155.36 1.04 150.64 1.06 145.96 C 1.69 129.65 1.97 113.33 2.03 97.00 C 2.64 80.66 2.99 64.30 3.01 47.95 C 3.42 35.24 3.87 22.53 3.92 9.81 C 5.62 8.19 7.31 6.57 9.02 4.96 Z" />
</g>
</svg>
