<?xml version="1.0" encoding="UTF-8" ?>
<!DOCTYPE svg PUBLIC "-//W3C//DTD SVG 1.1//EN" "http://www.w3.org/Graphics/SVG/1.1/DTD/svg11.dtd">
<svg width="112pt" height="125pt" viewBox="0 0 112 125" version="1.1" xmlns="http://www.w3.org/2000/svg">
<g id="#c4c4c4ff">
<path fill="#c4c4c4" opacity="1.00" d=" M 84.43 0.00 L 89.76 0.00 C 91.45 0.72 93.12 1.50 94.78 2.31 C 99.75 23.59 105.41 44.72 110.51 65.98 C 109.13 68.02 108.31 70.72 105.99 71.91 C 103.48 73.45 100.69 74.52 98.35 76.32 C 96.82 78.43 95.41 80.65 94.18 82.95 C 93.30 96.96 92.85 110.99 92.05 125.00 L 0.77 125.00 C 0.83 103.98 2.06 82.99 2.05 61.97 C 3.03 44.83 2.64 27.65 3.48 10.51 C 5.83 8.38 8.17 6.22 10.45 4.01 C 26.33 3.59 42.16 2.19 58.04 1.69 C 66.81 0.72 75.67 1.14 84.43 0.00 Z" />
</g>
</svg>
